<?xml version="1.0" encoding="utf-8"?>
<!-- Generator: Adobe Illustrator 24.0.0, SVG Export Plug-In . SVG Version: 6.00 Build 0)  -->
<svg version="1.1" id="Capa_1" xmlns="http://www.w3.org/2000/svg" xmlns:xlink="http://www.w3.org/1999/xlink" x="0px" y="0px"
	 viewBox="0 0 63.7 78.7" style="enable-background:new 0 0 63.7 78.7;" xml:space="preserve">
<style type="text/css">
	.st0{fill:#FFFFFF;}
</style>
<g>
	<path class="st0" d="M11.6,52.2v7.3c0,0,8.8-0.2,12.4-9.3C24,50.2,15,54.5,11.6,52.2z"/>
	<path class="st0" d="M11.8,60.9v2.9c0,0,8.8-0.4,13.1-9C24.9,54.7,16.5,61.2,11.8,60.9z"/>
	<path class="st0" d="M10.9,18.7L10.9,18.7v3.6C23.1,22.4,33,32.5,33,44.9c0,12.5-9.9,22.6-22.2,22.6v3.6l0,0
		c14.3,0,25.8-11.7,25.8-26.2C36.7,30.5,25.1,18.7,10.9,18.7z"/>
	<path class="st0" d="M11.8,6.1v2.3h3.3c0,0,4.1-0.4,8.9,8.4c0,0-1.1-9.5-7.5-10.8h-4.7V6.1z"/>
	<path class="st0" d="M11.5,27.5c0,0,14-0.7,15.2,13.4C26.7,40.9,25.1,31.3,11.5,27.5z"/>
	<path class="st0" d="M28.5,16.8l14-0.2c0,0,9.1,0.6,10.3,11.4l0.1,33.5c0,0-0.6,10.2-11.9,11.1v-1c0,0,5.7-1.4,7.2-8.5
		s0.8-35,0.8-35s-0.9-7.6-6.4-8.9l-14.1-1.4C28.5,17.8,28.5,16.8,28.5,16.8z"/>
	<path class="st0" d="M33.3,24.4c0,0,12.4,4.5,13.7,19.9c0,0,0.1,3-0.1,4.5c0,0-0.8,15.2-17.5,20.4l-0.1-1c0,0,10.6-9.5,11.5-18.4
		l0.2-7.3c0,0-0.4-10-7.9-17.5L33.3,24.4z"/>
</g>
</svg>
