<?xml version="1.0" encoding="utf-8"?>
<!-- Generator: Adobe Illustrator 24.0.0, SVG Export Plug-In . SVG Version: 6.00 Build 0)  -->
<svg version="1.1" id="Capa_1" xmlns="http://www.w3.org/2000/svg" xmlns:xlink="http://www.w3.org/1999/xlink" x="0px" y="0px"
	 viewBox="0 0 163 75" style="enable-background:new 0 0 163 75;" xml:space="preserve">
<style type="text/css">
	.st0{fill:#4D6051;}
	.st1{fill:#FFFFFF;}
	.st2{fill:#4D6051;stroke:#4D6051;stroke-width:0.25;stroke-miterlimit:10;}
</style>
<path class="st0" d="M119.6,50.4v7.3c0,0,8.8-0.2,12.4-9.3C132,48.3,123,52.6,119.6,50.4z"/>
<path class="st0" d="M119.8,59.1v2.9c0,0,8.8-0.4,13.1-9C132.8,52.9,124.4,59.4,119.8,59.1z"/>
<path class="st0" d="M118.8,16.9C118.8,16.9,118.8,16.9,118.8,16.9l0,3.6c12.3,0,22.2,10.2,22.2,22.6c0,12.5-9.9,22.6-22.2,22.6v3.6
	c0,0,0,0,0,0c14.3,0,25.8-11.7,25.8-26.2C144.6,28.6,133.1,16.9,118.8,16.9z"/>
<path class="st0" d="M119.7,4.3v2.3h3.3c0,0,4.1-0.4,8.9,8.4c0,0-1.1-9.5-7.5-10.8H119.7z"/>
<path class="st0" d="M119.5,25.7c0,0,14-0.7,15.2,13.4C134.7,39,133,29.5,119.5,25.7z"/>
<path class="st0" d="M136.5,14.9l14-0.2c0,0,9.1,0.6,10.3,11.4l0.1,33.5c0,0-0.6,10.2-11.9,11.1v-1c0,0,5.7-1.4,7.2-8.5
	c1.5-7.1,0.9-34.9,0.9-34.9s-0.9-7.6-6.4-8.9l-14.1-1.4V14.9z"/>
<path class="st0" d="M141.3,22.6c0,0,12.4,4.5,13.7,19.9c0,0,0.1,3-0.1,4.5c0,0-0.8,15.2-17.5,20.4l-0.1-1c0,0,10.6-9.5,11.5-18.4
	l0.2-7.3c0,0-0.4-10-7.9-17.5L141.3,22.6z"/>
<path class="st1" d="M2.4,26c-0.1,0-0.1,0-0.1-0.1V12.5c0-0.1,0-0.1,0.1-0.1H12c0.1,0,0.1,0,0.1,0.1v0.4c0,0.1,0,0.1-0.1,0.1H2.9
	v5.9h8.2c0.1,0,0.1,0,0.1,0.1v0.4c0,0.1,0,0.1-0.1,0.1H2.9v6.1h9.5c0.1,0,0.1,0,0.1,0.1V26c0,0.1,0,0.1-0.1,0.1L2.4,26L2.4,26z"/>
<path class="st1" d="M12,12.5v0.4H2.8v6.1H2.7v0.4h0.1v6.3h9.6v0.4h-10V12.5H12z M11.1,18.9v0.4H2.8v-0.4H11.1z M12,12.3H2.4
	c-0.1,0-0.2,0.1-0.2,0.2v13.5c0,0.1,0.1,0.2,0.2,0.2h10c0.1,0,0.2-0.1,0.2-0.2v-0.4c0-0.1-0.1-0.2-0.2-0.2H3v-5.9h8.1
	c0.1,0,0.2-0.1,0.2-0.2v-0.4c0-0.1-0.1-0.2-0.2-0.2H3V13H12c0.1,0,0.2-0.1,0.2-0.2v-0.4C12.2,12.4,12.2,12.3,12,12.3z"/>
<path class="st1" d="M16.7,26c-0.1,0-0.1,0-0.1-0.1V12.5c0-0.1,0-0.1,0.1-0.1h5.7c1.6,0,3,0.3,4.2,0.9c1.2,0.6,2.1,1.4,2.8,2.4
	c0.7,1,1,2.2,1,3.5c0,1.3-0.3,2.5-1,3.5c-0.7,1-1.6,1.8-2.8,2.4C25.4,25.7,24,26,22.4,26L16.7,26L16.7,26z M22.3,25.5
	c1.5,0,2.8-0.3,4-0.8c1.1-0.5,2-1.3,2.6-2.2c0.6-0.9,0.9-2,0.9-3.2c0-1.2-0.3-2.3-0.9-3.2c-0.6-0.9-1.5-1.7-2.6-2.2
	c-1.1-0.5-2.4-0.8-4-0.8h-5.1v12.5L22.3,25.5L22.3,25.5z"/>
<path class="st1" d="M22.4,12.5c1.6,0,3,0.3,4.2,0.9c1.2,0.6,2.1,1.4,2.8,2.4c0.7,1,1,2.2,1,3.5c0,1.3-0.3,2.5-1,3.5
	c-0.7,1-1.6,1.8-2.8,2.4c-1.2,0.6-2.6,0.9-4.2,0.9h-5.7V12.5H22.4z M17.1,25.6h5.2c1.5,0,2.9-0.3,4-0.8c1.1-0.5,2-1.3,2.6-2.3
	c0.6-1,0.9-2,0.9-3.3c0-1.2-0.3-2.3-0.9-3.3c-0.6-1-1.5-1.7-2.6-2.3c-1.1-0.5-2.5-0.8-4-0.8h-5.2V25.6z M22.4,12.3h-5.7
	c-0.1,0-0.2,0.1-0.2,0.2v13.5c0,0.1,0.1,0.2,0.2,0.2h5.7c1.6,0,3-0.3,4.3-0.9c1.2-0.6,2.2-1.4,2.8-2.5c0.7-1,1-2.2,1-3.6
	s-0.3-2.5-1-3.6c-0.7-1-1.6-1.9-2.8-2.5C25.4,12.6,24,12.3,22.4,12.3z M17.3,13h5c1.5,0,2.8,0.3,3.9,0.8c1.1,0.5,1.9,1.3,2.5,2.2
	c0.6,0.9,0.9,2,0.9,3.2c0,1.2-0.3,2.3-0.9,3.2c-0.6,0.9-1.4,1.7-2.5,2.2c-1.1,0.5-2.4,0.8-3.9,0.8h-5V13L17.3,13z"/>
<path class="st1" d="M40.1,26.1c-1.8,0-3.3-0.5-4.3-1.4c-1.1-1-1.6-2.4-1.6-4.3v-7.8c0-0.1,0-0.1,0.1-0.1h0.4c0.1,0,0.1,0,0.1,0.1
	v7.8c0,1.8,0.5,3.1,1.4,3.9c0.9,0.9,2.2,1.3,3.9,1.3c1.7,0,3-0.4,3.9-1.3c0.9-0.9,1.4-2.2,1.4-3.9v-7.8c0-0.1,0-0.1,0.1-0.1h0.4
	c0.1,0,0.1,0,0.1,0.1v7.8c0,1.9-0.5,3.4-1.6,4.3C43.4,25.6,41.9,26.1,40.1,26.1z"/>
<path class="st1" d="M45.9,12.5v7.8c0,1.9-0.5,3.3-1.6,4.3c-1,1-2.5,1.4-4.2,1.4c-1.8,0-3.2-0.5-4.2-1.4c-1-1-1.6-2.4-1.6-4.3v-7.8
	h0.4v7.8c0,1.8,0.5,3.1,1.4,4c0.9,0.9,2.3,1.3,4,1.3c1.7,0,3-0.4,4-1.3c0.9-0.9,1.4-2.2,1.4-4v-7.8H45.9 M45.9,12.3h-0.4
	c-0.1,0-0.2,0.1-0.2,0.2v7.8c0,1.7-0.5,3-1.3,3.9c-0.9,0.8-2.2,1.3-3.8,1.3c-1.6,0-2.9-0.4-3.8-1.3c-0.9-0.8-1.3-2.1-1.3-3.9v-7.8
	c0-0.1-0.1-0.2-0.2-0.2h-0.4c-0.1,0-0.2,0.1-0.2,0.2v7.8c0,1.9,0.5,3.4,1.6,4.4c1.1,1,2.5,1.5,4.4,1.5s3.3-0.5,4.4-1.5
	c1.1-1,1.6-2.5,1.6-4.4v-7.8C46.1,12.4,46,12.3,45.9,12.3z"/>
<path class="st1" d="M62.4,26C62.4,26,62.3,26,62.4,26L60.2,22h-9.1l-2.1,4c0,0,0,0.1-0.1,0.1h-0.5c0,0-0.1,0-0.1,0c0,0,0-0.1,0-0.1
	l7-13.5c0,0,0-0.1,0.1-0.1h0.4c0,0,0.1,0,0.1,0.1l7,13.5c0,0,0,0.1,0,0.1c0,0,0,0-0.1,0H62.4z M59.9,21.4l-4.2-8.2l-4.3,8.2H59.9z"
	/>
<path class="st1" d="M55.9,12.5l7,13.5h-0.5l-2.1-4.1h0.3l-0.2-0.4h-0.3L55.7,13l0.1-0.2h-0.2l0.1,0.2l-4.4,8.5H51l-0.2,0.4h0.3
	L49,25.9h-0.5l7-13.5H55.9 M60.1,21.5l0.2,0.4h-9.2l0.2-0.4H60.1z M55.9,12.3h-0.4c-0.1,0-0.1,0-0.2,0.1l-7,13.5c0,0.1,0,0.1,0,0.2
	c0,0.1,0.1,0.1,0.2,0.1H49c0.1,0,0.1,0,0.2-0.1l2-4h9l2,4c0,0.1,0.1,0.1,0.2,0.1h0.5c0.1,0,0.1,0,0.2-0.1c0-0.1,0-0.1,0-0.2l-7-13.5
	C56,12.3,56,12.3,55.9,12.3z M51.6,21.3l4.1-7.9l4.1,7.9H51.6z"/>
<path class="st1" d="M76.6,26C76.6,26,76.6,26,76.6,26l-3.9-4.7c-0.5,0.1-1.1,0.1-1.7,0.1h-4.6V26c0,0.1,0,0.1-0.1,0.1h-0.4
	c-0.1,0-0.1,0-0.1-0.1V12.5c0-0.1,0-0.1,0.1-0.1H71c1.2,0,2.3,0.2,3.2,0.5c0.9,0.4,1.6,0.9,2.1,1.5c0.5,0.7,0.7,1.5,0.7,2.4
	c0,0.9-0.2,1.8-0.7,2.4c-0.5,0.7-1.2,1.2-2.1,1.6c-0.3,0.1-0.5,0.2-0.8,0.3l3.8,4.7c0,0,0,0.1,0,0.1c0,0,0,0.1-0.1,0.1L76.6,26
	L76.6,26z M71.1,20.9c1.7,0,3.1-0.3,4-1c0.9-0.7,1.4-1.7,1.4-2.9c0-1.3-0.5-2.2-1.4-2.9c-0.9-0.7-2.2-1-4-1h-4.6v7.9L71.1,20.9
	L71.1,20.9z"/>
<path class="st1" d="M71,12.5c1.2,0,2.3,0.2,3.2,0.5c0.9,0.3,1.6,0.9,2,1.5c0.5,0.7,0.7,1.5,0.7,2.4c0,0.9-0.2,1.7-0.7,2.4
	c-0.5,0.7-1.1,1.2-2,1.5c-0.3,0.1-0.6,0.2-1,0.3l0,0h-0.5l0.1,0.1c-0.5,0.1-1.1,0.1-1.8,0.1h-4.7v-0.2l-0.2,0.2h0.2v4.6h-0.4V12.5
	H71z M66.2,12.8h0.2V21h-0.2l0.2,0.2V21h4.7c1.8,0,3.1-0.4,4-1.1c0.9-0.7,1.4-1.7,1.4-3c0-1.3-0.5-2.3-1.4-3c-0.9-0.7-2.3-1.1-4-1.1
	h-4.7v-0.2L66.2,12.8z M73.2,21.1l3.9,4.8h-0.5l-3.8-4.8C72.9,21.2,73.1,21.1,73.2,21.1z M71,12.3h-5.1c-0.1,0-0.2,0.1-0.2,0.2v13.5
	c0,0.1,0.1,0.2,0.2,0.2h0.4c0.1,0,0.2-0.1,0.2-0.2v-4.4H71c0.6,0,1.2,0,1.7-0.1l3.7,4.7c0,0,0.1,0.1,0.1,0.1h0.5
	c0.1,0,0.1,0,0.2-0.1c0-0.1,0-0.2,0-0.2l-3.7-4.6c0.2-0.1,0.5-0.1,0.7-0.2c0.9-0.4,1.6-0.9,2.1-1.6c0.5-0.7,0.7-1.5,0.7-2.5
	c0-1-0.3-1.8-0.7-2.5c-0.5-0.7-1.2-1.2-2.1-1.6C73.4,12.5,72.3,12.3,71,12.3z M66.6,13h4.5c1.7,0,3,0.3,3.9,1
	c0.9,0.7,1.3,1.6,1.3,2.8c0,1.2-0.4,2.2-1.3,2.8c-0.9,0.7-2.2,1-3.9,1h-4.5L66.6,13L66.6,13z"/>
<path class="st1" d="M81.3,26c-0.1,0-0.1,0-0.1-0.1V12.5c0-0.1,0-0.1,0.1-0.1H87c1.6,0,3,0.3,4.2,0.9c1.2,0.6,2.1,1.4,2.8,2.4
	c0.7,1,1,2.2,1,3.5c0,1.3-0.3,2.5-1,3.5c-0.7,1-1.6,1.8-2.8,2.4C90,25.7,88.6,26,87,26L81.3,26L81.3,26z M86.9,25.5
	c1.5,0,2.8-0.3,4-0.8c1.1-0.5,2-1.3,2.6-2.2c0.6-0.9,0.9-2,0.9-3.2c0-1.2-0.3-2.3-0.9-3.2c-0.6-0.9-1.5-1.7-2.6-2.2
	c-1.1-0.5-2.4-0.8-4-0.8h-5.1v12.5L86.9,25.5L86.9,25.5z"/>
<path class="st1" d="M87,12.5c1.6,0,3,0.3,4.2,0.9c1.2,0.6,2.1,1.4,2.8,2.4c0.7,1,1,2.2,1,3.5c0,1.3-0.3,2.5-1,3.5
	c-0.7,1-1.6,1.8-2.8,2.4c-1.2,0.6-2.6,0.9-4.2,0.9h-5.7V12.5H87z M81.7,25.6h5.2c1.5,0,2.9-0.3,4-0.8c1.1-0.5,2-1.3,2.6-2.3
	c0.6-1,0.9-2,0.9-3.3c0-1.2-0.3-2.3-0.9-3.3c-0.6-1-1.5-1.7-2.6-2.3c-1.1-0.5-2.5-0.8-4-0.8h-5.2V25.6z M87,12.3h-5.7
	c-0.1,0-0.2,0.1-0.2,0.2v13.5c0,0.1,0.1,0.2,0.2,0.2H87c1.6,0,3-0.3,4.3-0.9c1.2-0.6,2.2-1.4,2.8-2.5c0.7-1,1-2.2,1-3.6
	s-0.3-2.5-1-3.6c-0.7-1-1.6-1.9-2.8-2.5C90,12.6,88.6,12.3,87,12.3z M81.9,13h5c1.5,0,2.8,0.3,3.9,0.8c1.1,0.5,1.9,1.3,2.5,2.2
	c0.6,0.9,0.9,2,0.9,3.2c0,1.2-0.3,2.3-0.9,3.2c-0.6,0.9-1.4,1.7-2.5,2.2c-1.1,0.5-2.4,0.8-3.9,0.8h-5V13z"/>
<path class="st1" d="M105.2,26.1c-1.1,0-2.1-0.2-3.1-0.5c-0.9-0.3-1.8-0.8-2.5-1.5c-0.7-0.6-1.3-1.4-1.6-2.2
	c-0.4-0.8-0.6-1.8-0.6-2.7c0-1,0.2-1.9,0.6-2.7c0.4-0.8,0.9-1.6,1.6-2.2c0.7-0.6,1.5-1.1,2.5-1.5c0.9-0.3,2-0.5,3.1-0.5
	c1.1,0,2.1,0.2,3.1,0.5c0.9,0.3,1.8,0.8,2.5,1.5c0.7,0.6,1.3,1.4,1.6,2.2c0.4,0.8,0.6,1.7,0.6,2.7c0,1-0.2,1.9-0.6,2.7
	c-0.4,0.8-0.9,1.6-1.6,2.2c-0.7,0.6-1.5,1.1-2.5,1.5C107.3,25.9,106.3,26.1,105.2,26.1z M105.2,12.9c-1,0-2,0.2-2.8,0.5
	c-0.9,0.3-1.6,0.8-2.3,1.3c-0.6,0.6-1.2,1.2-1.5,2c-0.4,0.8-0.5,1.6-0.5,2.5s0.2,1.7,0.5,2.5c0.4,0.8,0.9,1.4,1.5,2
	c0.6,0.6,1.4,1,2.3,1.3c0.9,0.3,1.8,0.5,2.8,0.5s2-0.2,2.8-0.5c0.9-0.3,1.6-0.8,2.3-1.3c0.6-0.6,1.2-1.2,1.5-2
	c0.4-0.8,0.5-1.6,0.5-2.5s-0.2-1.7-0.5-2.5c-0.4-0.8-0.9-1.4-1.5-2c-0.6-0.6-1.4-1-2.3-1.3C107.1,13.1,106.2,12.9,105.2,12.9z"/>
<path class="st1" d="M105.2,12.4c1.1,0,2.1,0.2,3.1,0.5c0.9,0.3,1.8,0.8,2.4,1.4c0.7,0.6,1.2,1.3,1.6,2.2c0.4,0.8,0.6,1.7,0.6,2.7
	c0,1-0.2,1.9-0.6,2.7c-0.4,0.8-0.9,1.5-1.6,2.2c-0.7,0.6-1.5,1.1-2.4,1.4c-0.9,0.3-2,0.5-3.1,0.5c-1.1,0-2.1-0.2-3.1-0.5
	c-0.9-0.3-1.8-0.8-2.4-1.4c-0.7-0.6-1.2-1.3-1.6-2.2s-0.6-1.7-0.6-2.7c0-1,0.2-1.9,0.6-2.7c0.4-0.8,0.9-1.5,1.6-2.2
	c0.7-0.6,1.5-1.1,2.4-1.4C103,12.6,104.1,12.4,105.2,12.4z M105.2,25.6c1,0,2-0.2,2.9-0.5c0.9-0.3,1.7-0.8,2.3-1.4
	c0.7-0.6,1.2-1.3,1.5-2c0.4-0.8,0.6-1.6,0.6-2.5c0-0.9-0.2-1.8-0.6-2.5c-0.4-0.8-0.9-1.5-1.5-2c-0.7-0.6-1.4-1-2.3-1.4
	c-0.9-0.3-1.8-0.5-2.9-0.5c-1,0-2,0.2-2.9,0.5c-0.9,0.3-1.7,0.8-2.3,1.4c-0.7,0.6-1.2,1.3-1.5,2c-0.4,0.8-0.6,1.6-0.6,2.5
	c0,0.9,0.2,1.8,0.6,2.5c0.4,0.8,0.9,1.5,1.5,2c0.7,0.6,1.4,1,2.3,1.4C103.2,25.5,104.1,25.6,105.2,25.6z M105.2,12.2
	c-1.1,0-2.2,0.2-3.1,0.5c-1,0.3-1.8,0.8-2.5,1.5c-0.7,0.6-1.3,1.4-1.7,2.2c-0.4,0.8-0.6,1.8-0.6,2.8c0,1,0.2,1.9,0.6,2.8
	c0.4,0.8,1,1.6,1.7,2.2c0.7,0.6,1.6,1.1,2.5,1.5c1,0.3,2,0.5,3.1,0.5s2.2-0.2,3.1-0.5c1-0.3,1.8-0.8,2.5-1.5s1.3-1.4,1.7-2.2
	c0.4-0.8,0.6-1.8,0.6-2.8c0-1-0.2-1.9-0.6-2.8c-0.4-0.8-1-1.6-1.7-2.2c-0.7-0.6-1.6-1.1-2.5-1.5C107.3,12.4,106.3,12.2,105.2,12.2z
	 M105.2,25.4c-1,0-1.9-0.2-2.8-0.5c-0.9-0.3-1.6-0.8-2.3-1.3c-0.6-0.6-1.1-1.2-1.5-2c-0.4-0.7-0.5-1.6-0.5-2.5s0.2-1.7,0.5-2.5
	c0.4-0.7,0.8-1.4,1.5-2c0.6-0.6,1.4-1,2.3-1.3c0.9-0.3,1.8-0.5,2.8-0.5c1,0,1.9,0.2,2.8,0.5c0.9,0.3,1.6,0.8,2.3,1.3
	c0.6,0.6,1.1,1.2,1.5,2c0.4,0.7,0.5,1.6,0.5,2.5s-0.2,1.7-0.5,2.5c-0.4,0.7-0.8,1.4-1.5,2c-0.6,0.6-1.4,1-2.3,1.3
	C107.1,25.3,106.2,25.4,105.2,25.4z"/>
<path class="st1" d="M3,47.1c-0.1,0-0.1,0-0.1-0.1V33.6c0-0.1,0-0.1,0.1-0.1h5.2c1.5,0,2.8,0.3,3.9,0.9c1.1,0.6,2,1.4,2.6,2.4
	c0.6,1,0.9,2.2,0.9,3.5c0,1.3-0.3,2.5-0.9,3.5c-0.6,1-1.5,1.8-2.6,2.4c-1.1,0.6-2.4,0.9-3.9,0.9H3L3,47.1z M8.2,46.6
	c1.4,0,2.6-0.3,3.6-0.8c1-0.5,1.8-1.3,2.4-2.2c0.6-0.9,0.8-2,0.8-3.2c0-1.2-0.3-2.3-0.8-3.2c-0.6-0.9-1.4-1.7-2.4-2.2
	c-1-0.5-2.2-0.8-3.6-0.8H3.5v12.5H8.2z"/>
<path class="st1" d="M8.2,33.6c1.5,0,2.7,0.3,3.8,0.9c1.1,0.6,1.9,1.4,2.5,2.4c0.6,1,0.9,2.2,0.9,3.5c0,1.3-0.3,2.5-0.9,3.5
	c-0.6,1-1.5,1.8-2.5,2.4C10.9,46.7,9.7,47,8.2,47H3V33.6H8.2z M3.4,46.7h4.8c1.4,0,2.6-0.3,3.7-0.8c1-0.5,1.8-1.3,2.4-2.3
	c0.6-1,0.8-2,0.8-3.3c0-1.2-0.3-2.3-0.8-3.3c-0.6-1-1.4-1.7-2.4-2.3c-1-0.5-2.3-0.8-3.7-0.8H3.4V46.7z M8.2,33.4H3
	c-0.1,0-0.2,0.1-0.2,0.2V47c0,0.1,0.1,0.2,0.2,0.2h5.2c1.5,0,2.8-0.3,3.9-0.9c1.1-0.6,2-1.4,2.6-2.5c0.6-1,0.9-2.2,0.9-3.6
	c0-1.3-0.3-2.5-0.9-3.6c-0.6-1-1.5-1.9-2.6-2.5C11,33.7,9.7,33.4,8.2,33.4z M3.6,34.1h4.6c1.4,0,2.6,0.3,3.6,0.8
	c1,0.5,1.8,1.3,2.3,2.2c0.5,0.9,0.8,2,0.8,3.2c0,1.2-0.3,2.3-0.8,3.2c-0.5,0.9-1.3,1.7-2.3,2.2c-1,0.5-2.2,0.8-3.6,0.8H3.6V34.1z"/>
<path class="st1" d="M19.3,47.1c-0.1,0-0.1,0-0.1-0.1V33.6c0-0.1,0-0.1,0.1-0.1h8.9c0.1,0,0.1,0,0.1,0.1v0.4c0,0.1,0,0.1-0.1,0.1
	h-8.4v5.9h7.5c0.1,0,0.1,0,0.1,0.1v0.3c0,0.1,0,0.1-0.1,0.1h-7.5v6.1h8.7c0.1,0,0.1,0,0.1,0.1V47c0,0.1,0,0.1-0.1,0.1L19.3,47.1
	L19.3,47.1z"/>
<path class="st1" d="M28.1,33.6v0.4h-8.5V40h-0.1v0.4h0.1v6.3h8.8V47h-9.2V33.6H28.1z M27.3,40v0.4h-7.6V40H27.3z M28.1,33.4h-8.9
	c-0.1,0-0.2,0.1-0.2,0.2V47c0,0.1,0.1,0.2,0.2,0.2h9.2c0.1,0,0.2-0.1,0.2-0.2v-0.4c0-0.1-0.1-0.2-0.2-0.2h-8.6v-5.9h7.4
	c0.1,0,0.2-0.1,0.2-0.2V40c0-0.1-0.1-0.2-0.2-0.2h-7.4v-5.7h8.3c0.1,0,0.2-0.1,0.2-0.2v-0.4C28.3,33.5,28.3,33.4,28.1,33.4z"/>
<path class="st1" d="M45.6,47.1c-0.1,0-0.1,0-0.1-0.1V34.7l-6.1,10.4c0,0,0,0-0.1,0h-0.2c0,0-0.1,0-0.1,0l-6.1-10.4V47
	c0,0.1,0,0.1-0.1,0.1h-0.4c-0.1,0-0.1,0-0.1-0.1V33.6c0-0.1,0-0.1,0.1-0.1h0.3c0,0,0.1,0,0.1,0l6.4,10.9l6.4-10.9c0,0,0,0,0.1,0H46
	c0.1,0,0.1,0,0.1,0.1V47c0,0.1,0,0.1-0.1,0.1L45.6,47.1L45.6,47.1z"/>
<path class="st1" d="M46,33.6V47h-0.4V34.4l0.2-0.3h-0.2v0.3l-6.3,10.7h-0.2l-6.3-10.7v-0.3h-0.2l0.2,0.3V47h-0.4V33.6h0.3l6.5,11
	l-0.1,0.2h0.2l-0.1-0.2l6.5-11H46z M46,33.4h-0.3c-0.1,0-0.1,0-0.2,0.1l-6.3,10.7l-6.3-10.7c0-0.1-0.1-0.1-0.2-0.1h-0.3
	c-0.1,0-0.2,0.1-0.2,0.2V47c0,0.1,0.1,0.2,0.2,0.2h0.4c0.1,0,0.2-0.1,0.2-0.2V35.1l5.9,10.1c0,0.1,0.1,0.1,0.2,0.1h0.2
	c0.1,0,0.1,0,0.2-0.1l5.9-10.1V47c0,0.1,0.1,0.2,0.2,0.2H46c0.1,0,0.2-0.1,0.2-0.2V33.6C46.2,33.5,46.1,33.4,46,33.4z"/>
<path class="st1" d="M61.6,47.1C61.5,47.1,61.5,47.1,61.6,47.1l-2-4.1h-8.3l-1.9,4c0,0,0,0.1-0.1,0.1h-0.5c0,0-0.1,0-0.1,0
	c0,0,0-0.1,0-0.1l6.4-13.5c0,0,0-0.1,0.1-0.1h0.4c0,0,0.1,0,0.1,0.1L62.1,47c0,0,0,0.1,0,0.1c0,0,0,0-0.1,0H61.6L61.6,47.1z
	 M59.3,42.5l-3.9-8.2l-3.9,8.2H59.3z"/>
<path class="st1" d="M55.6,33.6L62,47h-0.5L59.6,43h0.3l-0.2-0.4h-0.2l-4-8.5l0.1-0.2h-0.2l0.1,0.2l-4,8.5h-0.3L50.9,43h0.3L49.3,47
	h-0.5l6.4-13.5H55.6 M59.5,42.6l0.2,0.4h-8.4l0.2-0.4H59.5z M55.6,33.4h-0.4c-0.1,0-0.1,0-0.2,0.1l-6.4,13.5c0,0.1,0,0.1,0,0.2
	c0,0.1,0.1,0.1,0.2,0.1h0.5c0.1,0,0.1,0,0.2-0.1l1.9-3.9h8.2l1.9,3.9c0,0.1,0.1,0.1,0.2,0.1H62c0.1,0,0.1,0,0.2-0.1
	c0-0.1,0-0.1,0-0.2l-6.4-13.5C55.8,33.4,55.7,33.4,55.6,33.4z M51.7,42.4l3.7-7.9l3.7,7.9H51.7z"/>
<path class="st1" d="M74.6,47.1C74.6,47.1,74.5,47.1,74.6,47.1L71,42.4c-0.5,0.1-1,0.1-1.6,0.1h-4.2V47c0,0.1,0,0.1-0.1,0.1h-0.4
	c-0.1,0-0.1,0-0.1-0.1V33.6c0-0.1,0-0.1,0.1-0.1h4.7c1.1,0,2.1,0.2,2.9,0.5c0.8,0.4,1.5,0.9,1.9,1.5C74.8,36.2,75,37,75,38
	c0,0.9-0.2,1.8-0.7,2.4c-0.4,0.7-1.1,1.2-1.9,1.6c-0.2,0.1-0.5,0.2-0.7,0.3l3.5,4.7c0,0,0,0.1,0,0.1c0,0,0,0.1-0.1,0.1L74.6,47.1
	L74.6,47.1z M69.5,41.9c1.6,0,2.8-0.3,3.6-1c0.8-0.7,1.2-1.7,1.2-2.9c0-1.3-0.4-2.2-1.2-2.9c-0.8-0.7-2.1-1-3.6-1h-4.2v7.9H69.5z"/>
<path class="st1" d="M69.5,33.6c1.1,0,2.1,0.2,2.9,0.5c0.8,0.3,1.4,0.9,1.9,1.5c0.4,0.7,0.7,1.5,0.7,2.4c0,0.9-0.2,1.7-0.7,2.4
	c-0.4,0.7-1.1,1.2-1.9,1.5c-0.3,0.1-0.6,0.2-0.9,0.3l0,0H71l0.1,0.1c-0.5,0.1-1,0.1-1.6,0.1h-4.3v-0.2L65,42.4h0.2V47h-0.4V33.6
	H69.5z M65,33.9h0.2V42H65l0.2,0.2V42h4.3c1.6,0,2.9-0.4,3.7-1.1c0.9-0.7,1.3-1.7,1.3-3c0-1.3-0.4-2.3-1.3-3
	c-0.9-0.7-2.1-1.1-3.7-1.1h-4.3v-0.2L65,33.9z M71.5,42.2l3.6,4.8h-0.5l-3.5-4.8C71.2,42.2,71.4,42.2,71.5,42.2z M69.5,33.4h-4.7
	c-0.1,0-0.2,0.1-0.2,0.2V47c0,0.1,0.1,0.2,0.2,0.2h0.4c0.1,0,0.2-0.1,0.2-0.2v-4.4h4.1c0.5,0,1.1,0,1.5-0.1l3.4,4.7
	c0,0,0.1,0.1,0.2,0.1h0.5c0.1,0,0.1,0,0.2-0.1c0-0.1,0-0.2,0-0.2l-3.4-4.6c0.2-0.1,0.4-0.1,0.6-0.2c0.8-0.4,1.5-0.9,1.9-1.6
	c0.5-0.7,0.7-1.5,0.7-2.5c0-1-0.2-1.8-0.7-2.5c-0.5-0.7-1.1-1.2-1.9-1.6C71.6,33.6,70.6,33.4,69.5,33.4z M65.4,34.1h4.1
	c1.6,0,2.8,0.3,3.6,1c0.8,0.7,1.2,1.6,1.2,2.8c0,1.2-0.4,2.2-1.2,2.8c-0.8,0.7-2,1-3.6,1h-4.1V34.1z"/>
<path class="st1" d="M81.3,47.1c-0.1,0-0.1,0-0.1-0.1V34h-5c-0.1,0-0.1,0-0.1-0.1v-0.4c0-0.1,0-0.1,0.1-0.1h10.6
	c0.1,0,0.1,0,0.1,0.1v0.4c0,0.1,0,0.1-0.1,0.1h-5v13c0,0.1,0,0.1-0.1,0.1H81.3z"/>
<path class="st1" d="M86.8,33.6v0.4h-5.1V47h-0.4V33.9h-5.1v-0.4H86.8z M86.8,33.4H76.2c-0.1,0-0.2,0.1-0.2,0.2v0.4
	c0,0.1,0.1,0.2,0.2,0.2h4.9V47c0,0.1,0.1,0.2,0.2,0.2h0.4c0.1,0,0.2-0.1,0.2-0.2V34.1h4.9c0.1,0,0.2-0.1,0.2-0.2v-0.4
	C87,33.5,86.9,33.4,86.8,33.4z"/>
<path class="st1" d="M89.5,47.1c-0.1,0-0.1,0-0.1-0.1V33.6c0-0.1,0-0.1,0.1-0.1h0.4c0.1,0,0.1,0,0.1,0.1V47c0,0.1,0,0.1-0.1,0.1
	L89.5,47.1L89.5,47.1z"/>
<path class="st1" d="M89.9,33.6V47h-0.4V33.6H89.9z M89.9,33.4h-0.4c-0.1,0-0.2,0.1-0.2,0.2V47c0,0.1,0.1,0.2,0.2,0.2h0.4
	c0.1,0,0.2-0.1,0.2-0.2V33.6C90.1,33.5,90,33.4,89.9,33.4z"/>
<path class="st1" d="M105.6,47.1C105.6,47.1,105.6,47.1,105.6,47.1l-10-12.6V47c0,0.1,0,0.1-0.1,0.1h-0.4c-0.1,0-0.1,0-0.1-0.1V33.6
	c0-0.1,0-0.1,0.1-0.1h0.3c0,0,0.1,0,0.1,0l9.9,12.5V33.6c0-0.1,0-0.1,0.1-0.1h0.4c0.1,0,0.1,0,0.1,0.1V47c0,0.1,0,0.1-0.1,0.1
	L105.6,47.1L105.6,47.1z"/>
<path class="st1" d="M106,33.6V47h-0.3L95.5,34.3V34h-0.2l0.2,0.3V47h-0.4V33.6h0.3l10.1,12.7v0.3h0.2l-0.2-0.3V33.6H106z M106,33.4
	h-0.4c-0.1,0-0.2,0.1-0.2,0.2v12.2l-9.8-12.3c0,0-0.1-0.1-0.2-0.1h-0.3c-0.1,0-0.2,0.1-0.2,0.2V47c0,0.1,0.1,0.2,0.2,0.2h0.4
	c0.1,0,0.2-0.1,0.2-0.2V34.8l9.8,12.3c0,0,0.1,0.1,0.2,0.1h0.3c0.1,0,0.2-0.1,0.2-0.2V33.6C106.2,33.5,106.1,33.4,106,33.4z"/>
<path class="st1" d="M112.5,47.1c-0.1,0-0.1,0-0.1-0.1V33.6c0-0.1,0-0.1,0.1-0.1h0.4c0.1,0,0.1,0,0.1,0.1V47c0,0.1,0,0.1-0.1,0.1
	L112.5,47.1L112.5,47.1z"/>
<path class="st1" d="M112.9,33.6V47h-0.4V33.6H112.9z M112.9,33.4h-0.4c-0.1,0-0.2,0.1-0.2,0.2V47c0,0.1,0.1,0.2,0.2,0.2h0.4
	c0.1,0,0.2-0.1,0.2-0.2V33.6C113.1,33.5,113,33.4,112.9,33.4z"/>
<g>
	<path class="st2" d="M10.9,56h-7v3.4H10v0.7H3.9v4.3H3.1v-9.1h7.9V56z"/>
	<path class="st2" d="M18.7,55.2c0.8,0,1.6,0.1,2.3,0.3c0.7,0.2,1.3,0.5,1.8,0.9s0.9,0.9,1.2,1.5c0.3,0.6,0.4,1.2,0.4,1.9
		c0,0.7-0.1,1.3-0.4,1.9s-0.7,1.1-1.2,1.5c-0.5,0.4-1.1,0.7-1.8,1s-1.5,0.3-2.3,0.3s-1.6-0.1-2.3-0.3c-0.7-0.2-1.3-0.6-1.8-1
		c-0.5-0.4-0.9-0.9-1.2-1.5c-0.3-0.6-0.4-1.2-0.4-1.9c0-0.7,0.1-1.4,0.4-1.9c0.3-0.6,0.7-1.1,1.2-1.5s1.1-0.7,1.8-0.9
		S17.9,55.2,18.7,55.2z M18.7,63.9c0.7,0,1.3-0.1,1.9-0.3c0.6-0.2,1.1-0.4,1.5-0.8c0.4-0.3,0.8-0.8,1-1.3c0.2-0.5,0.4-1.1,0.4-1.7
		c0-0.7-0.1-1.2-0.4-1.7c-0.2-0.5-0.6-0.9-1-1.3c-0.4-0.3-0.9-0.6-1.5-0.8s-1.2-0.3-1.9-0.3c-0.7,0-1.3,0.1-1.9,0.3
		c-0.6,0.2-1.1,0.4-1.5,0.8c-0.4,0.3-0.8,0.8-1,1.3c-0.2,0.5-0.4,1.1-0.4,1.7c0,0.6,0.1,1.2,0.4,1.7c0.2,0.5,0.6,0.9,1,1.3
		c0.4,0.3,0.9,0.6,1.5,0.8C17.3,63.8,18,63.9,18.7,63.9z"/>
	<path class="st2" d="M35.3,56h-4.2v8.4h-0.9V56H26v-0.7h9.3V56z"/>
	<path class="st2" d="M42.6,55.2c0.8,0,1.6,0.1,2.3,0.3c0.7,0.2,1.3,0.5,1.8,0.9s0.9,0.9,1.2,1.5c0.3,0.6,0.4,1.2,0.4,1.9
		c0,0.7-0.1,1.3-0.4,1.9s-0.7,1.1-1.2,1.5c-0.5,0.4-1.1,0.7-1.8,1s-1.5,0.3-2.3,0.3s-1.6-0.1-2.3-0.3c-0.7-0.2-1.3-0.6-1.8-1
		c-0.5-0.4-0.9-0.9-1.2-1.5c-0.3-0.6-0.4-1.2-0.4-1.9c0-0.7,0.1-1.4,0.4-1.9c0.3-0.6,0.7-1.1,1.2-1.5s1.1-0.7,1.8-0.9
		S41.8,55.2,42.6,55.2z M42.6,63.9c0.7,0,1.3-0.1,1.9-0.3c0.6-0.2,1.1-0.4,1.5-0.8c0.4-0.3,0.8-0.8,1-1.3c0.2-0.5,0.4-1.1,0.4-1.7
		c0-0.7-0.1-1.2-0.4-1.7c-0.2-0.5-0.6-0.9-1-1.3c-0.4-0.3-0.9-0.6-1.5-0.8s-1.2-0.3-1.9-0.3c-0.7,0-1.3,0.1-1.9,0.3
		c-0.6,0.2-1.1,0.4-1.5,0.8c-0.4,0.3-0.8,0.8-1,1.3c-0.2,0.5-0.4,1.1-0.4,1.7c0,0.6,0.1,1.2,0.4,1.7c0.2,0.5,0.6,0.9,1,1.3
		c0.4,0.3,0.9,0.6,1.5,0.8C41.3,63.8,41.9,63.9,42.6,63.9z"/>
	<path class="st2" d="M56.1,64.6c-0.9,0-1.7-0.1-2.4-0.3c-0.7-0.2-1.3-0.5-1.8-1c-0.5-0.4-0.9-0.9-1.2-1.5s-0.4-1.2-0.4-1.9
		c0-0.7,0.1-1.4,0.4-1.9c0.3-0.6,0.7-1.1,1.2-1.5c0.5-0.4,1.1-0.7,1.8-0.9c0.7-0.2,1.5-0.3,2.3-0.3c0.7,0,1.3,0.1,1.9,0.2
		c0.6,0.1,1.1,0.3,1.5,0.5c0.5,0.2,0.8,0.5,1.1,0.8c0.3,0.3,0.5,0.7,0.6,1.1h-1c-0.1-0.3-0.2-0.5-0.4-0.8s-0.5-0.4-0.9-0.6
		c-0.4-0.2-0.8-0.3-1.3-0.4c-0.5-0.1-1-0.2-1.6-0.2c-0.7,0-1.4,0.1-1.9,0.3c-0.6,0.2-1.1,0.4-1.5,0.8c-0.4,0.3-0.8,0.8-1,1.3
		c-0.2,0.5-0.4,1.1-0.4,1.7c0,0.6,0.1,1.2,0.4,1.7c0.2,0.5,0.6,0.9,1,1.3c0.4,0.3,0.9,0.6,1.5,0.8c0.6,0.2,1.2,0.3,2,0.3
		c1,0,1.9-0.1,2.6-0.4c0.7-0.3,1.4-0.7,1.9-1.2v-1.6h-3.3V60h4.2v4.4h-0.5l-0.4-1.2c-0.3,0.3-0.6,0.5-0.9,0.6
		c-0.3,0.2-0.7,0.3-1.1,0.4c-0.4,0.1-0.8,0.2-1.2,0.2C56.9,64.6,56.5,64.6,56.1,64.6z"/>
	<path class="st2" d="M74,64.4h-1L71.8,62c-0.1-0.2-0.2-0.5-0.4-0.7c-0.1-0.2-0.3-0.4-0.5-0.5c-0.2-0.2-0.4-0.3-0.7-0.4
		c-0.2-0.1-0.5-0.1-0.9-0.1h-4.2v4.1h-0.9v-9.1h5.5c0.5,0,1,0,1.5,0.1c0.5,0.1,0.9,0.2,1.3,0.4c0.4,0.2,0.7,0.4,0.9,0.7
		c0.2,0.3,0.3,0.7,0.3,1.2c0,0.3,0,0.6-0.1,0.9c-0.1,0.3-0.3,0.5-0.5,0.7s-0.5,0.4-0.8,0.5c-0.3,0.1-0.7,0.3-1.1,0.3
		c0.2,0.1,0.4,0.3,0.6,0.4c0.1,0.1,0.3,0.3,0.4,0.4c0.1,0.1,0.2,0.3,0.3,0.5c0.1,0.2,0.2,0.4,0.3,0.6L74,64.4z M65.2,59.7h4.2
		c0.6,0,1.1,0,1.5-0.1c0.4-0.1,0.8-0.2,1.1-0.3s0.5-0.4,0.6-0.6c0.1-0.2,0.2-0.5,0.2-0.9c0-0.6-0.3-1.1-0.8-1.3
		c-0.5-0.3-1.3-0.4-2.4-0.4h-4.5V59.7z"/>
	<path class="st2" d="M86.3,64.4h-1.1l-1.5-2.9h-6c-0.2,0.5-0.4,0.9-0.7,1.5s-0.5,1-0.7,1.5h-0.9c0.4-0.8,0.8-1.6,1.2-2.3
		c0.4-0.8,0.8-1.5,1.2-2.2c0.4-0.7,0.8-1.5,1.2-2.2c0.4-0.8,0.8-1.5,1.2-2.3h1.3L86.3,64.4z M83.5,61l-2.8-5.1L78,61H83.5z"/>
	<path class="st2" d="M96.1,56h-7v3.4h6.1v0.7h-6.1v4.3h-0.9v-9.1h7.9V56z"/>
	<path class="st2" d="M100,64.4h-0.9v-9.1h0.9V64.4z"/>
	<path class="st2" d="M113.1,64.4H112l-1.5-2.9h-6c-0.2,0.5-0.4,0.9-0.7,1.5s-0.5,1-0.7,1.5h-0.9c0.4-0.8,0.8-1.6,1.2-2.3
		c0.4-0.8,0.8-1.5,1.2-2.2s0.8-1.5,1.2-2.2c0.4-0.8,0.8-1.5,1.2-2.3h1.3L113.1,64.4z M110.3,61l-2.8-5.1l-2.7,5.1H110.3z"/>
</g>
</svg>
