<svg width="320" height="218" viewBox="0 0 320 218" fill="none" xmlns="http://www.w3.org/2000/svg">
<g filter="url(#filter0_d_5_2)">
<path d="M5.06996 152.834H13.309V154.83H7.2828V159.187H13.309V161.183H7.2828V168.464H5.06996V152.834Z" fill="white" stroke="white" stroke-width="0.5" stroke-miterlimit="10"/>
<path d="M25.5422 152.609C27.936 152.609 29.9262 153.368 31.5127 154.9C33.0993 156.432 33.8926 158.344 33.8926 160.649C33.8926 162.954 33.0854 164.852 31.4849 166.37C29.8844 167.874 27.8525 168.633 25.417 168.633C23.0928 168.633 21.1444 167.874 19.5996 166.37C18.0408 164.852 17.2754 162.968 17.2754 160.691C17.2754 158.358 18.0548 156.432 19.6135 154.9C21.1722 153.368 23.1485 152.609 25.5422 152.609ZM25.6257 154.731C23.8582 154.731 22.3969 155.294 21.2696 156.404C20.1423 157.515 19.5578 158.948 19.5578 160.691C19.5578 162.378 20.1284 163.77 21.2696 164.894C22.4109 166.019 23.8443 166.567 25.5561 166.567C27.2819 166.567 28.7154 165.99 29.8705 164.852C31.0256 163.713 31.5962 162.294 31.5962 160.593C31.5962 158.934 31.0256 157.543 29.8705 156.418C28.7293 155.294 27.3097 154.731 25.6257 154.731Z" fill="white" stroke="white" stroke-width="0.5" stroke-miterlimit="10"/>
<path d="M36.0915 152.806H49.0067V154.802H43.6068V168.45H41.38V154.802H36.0915V152.806Z" fill="white" stroke="white" stroke-width="0.5" stroke-miterlimit="10"/>
<path d="M59.4725 152.609C61.8662 152.609 63.8564 153.368 65.443 154.9C67.0295 156.432 67.8228 158.344 67.8228 160.649C67.8228 162.954 67.0156 164.852 65.4151 166.37C63.8146 167.874 61.7827 168.633 59.3472 168.633C57.023 168.633 55.0746 167.874 53.5298 166.37C51.9711 164.852 51.2056 162.968 51.2056 160.691C51.2056 158.358 51.985 156.432 53.5437 154.9C55.1025 153.368 57.0787 152.609 59.4725 152.609ZM59.556 154.731C57.7885 154.731 56.3272 155.294 55.1999 156.404C54.0587 157.529 53.4881 158.948 53.4881 160.691C53.4881 162.378 54.0587 163.77 55.1999 164.894C56.3411 166.019 57.7746 166.567 59.4864 166.567C61.2121 166.567 62.6456 165.99 63.8007 164.852C64.9559 163.713 65.5265 162.294 65.5265 160.593C65.5265 158.934 64.9559 157.543 63.8007 156.418C62.6595 155.294 61.24 154.731 59.556 154.731Z" fill="white" stroke="white" stroke-width="0.5" stroke-miterlimit="10"/>
<path d="M81.1694 160.747H86.3606V167.368C84.4539 168.197 82.5612 168.619 80.6962 168.619C78.1355 168.619 76.0896 167.86 74.5587 166.356C73.0279 164.838 72.2624 162.982 72.2624 160.776C72.2624 158.442 73.0557 156.502 74.6423 154.956C76.2288 153.41 78.219 152.637 80.6128 152.637C81.4895 152.637 82.3107 152.735 83.09 152.918C83.8694 153.115 84.8575 153.452 86.0544 153.958V156.235C84.2034 155.153 82.3802 154.619 80.571 154.619C78.887 154.619 77.4535 155.195 76.2984 156.362C75.1433 157.529 74.5587 158.948 74.5587 160.649C74.5587 162.42 75.1433 163.868 76.2984 164.992C77.4535 166.117 78.9427 166.679 80.7658 166.679C81.6565 166.679 82.7143 166.468 83.939 166.061L84.1477 165.99V162.743H81.1694V160.747Z" fill="white" stroke="white" stroke-width="0.5" stroke-miterlimit="10"/>
<path d="M91.9275 168.45V152.834H95.7965C97.3552 152.834 98.6077 153.227 99.5124 154C100.431 154.788 100.89 155.842 100.89 157.177C100.89 158.091 100.667 158.878 100.208 159.539C99.7629 160.199 99.1088 160.691 98.2737 161.029C98.7608 161.352 99.2479 161.802 99.7211 162.364C100.194 162.926 100.862 163.924 101.711 165.33C102.254 166.215 102.685 166.89 103.006 167.326L103.827 168.45H101.196L100.514 167.424C100.487 167.382 100.445 167.326 100.375 167.227L99.9438 166.609L99.2619 165.47L98.5242 164.247C98.065 163.601 97.6475 163.095 97.2717 162.715C96.8959 162.336 96.548 162.069 96.2418 161.9C95.9356 161.731 95.4207 161.647 94.697 161.647H94.1264V168.436H91.9275V168.45ZM94.7944 154.731H94.1264V159.665H94.9614C96.0887 159.665 96.8542 159.567 97.2717 159.37C97.6892 159.173 98.0093 158.878 98.2459 158.498C98.4825 158.105 98.5938 157.655 98.5938 157.163C98.5938 156.671 98.4686 156.221 98.2041 155.828C97.9397 155.434 97.5779 155.153 97.1186 154.984C96.6593 154.816 95.88 154.731 94.7944 154.731Z" fill="white" stroke="white" stroke-width="0.5" stroke-miterlimit="10"/>
<path d="M112.748 152.735H114.306L121.237 168.436H118.969L116.909 163.812H110.312L108.378 168.436H106.109L112.748 152.735ZM116.004 161.83L113.513 156.179L111.203 161.83H116.004Z" fill="white" stroke="white" stroke-width="0.5" stroke-miterlimit="10"/>
<path d="M125.218 152.834H133.457V154.83H127.43V159.187H133.457V161.183H127.43V168.464H125.218V152.834Z" fill="white" stroke="white" stroke-width="0.5" stroke-miterlimit="10"/>
<path d="M138.119 152.834H140.332V168.45H138.119V152.834ZM142.308 148.322L139.803 151.681H138.564L140.053 148.322H142.308Z" fill="white" stroke="white" stroke-width="0.5" stroke-miterlimit="10"/>
<path d="M150.964 152.735H152.523L159.454 168.436H157.185L155.126 163.812H148.529L146.594 168.436H144.326L150.964 152.735ZM154.221 161.83L151.73 156.179L149.42 161.83H154.221Z" fill="white" stroke="white" stroke-width="0.5" stroke-miterlimit="10"/>
</g>
<g filter="url(#filter1_d_5_2)">
<path d="M185.441 145.665V168.731C185.441 168.731 213.359 168.126 224.52 139.255C224.534 139.269 196.101 152.763 185.441 145.665Z" fill="#4D6051"/>
<path d="M185.956 173.102V182.155C185.956 182.155 213.707 180.791 227.234 153.62C227.234 153.62 200.68 174.129 185.956 173.102Z" fill="#4D6051"/>
<path d="M182.963 39.9197C182.95 39.9197 182.922 39.9197 182.908 39.9197V51.2068C221.653 51.3614 253.009 83.3253 253.009 122.725C253.009 162.125 221.653 194.102 182.908 194.243V205.657C182.922 205.657 182.95 205.657 182.963 205.657C228 205.657 264.505 168.548 264.505 122.781C264.505 77.0141 228.014 39.9197 182.963 39.9197Z" fill="#4D6051"/>
<path d="M185.789 0V7.35141H196.324C196.324 7.35141 209.434 5.98795 224.534 34.002C224.534 34.002 221.152 4.10442 200.889 0H185.789Z" fill="#4D6051"/>
<path d="M184.94 67.6667C184.94 67.6667 229.183 65.5442 232.982 109.878C232.982 109.878 227.805 79.727 184.94 67.6667Z" fill="#4D6051"/>
<path d="M238.744 33.6647L282.959 32.976C282.959 32.976 311.837 35.0282 315.442 68.9739L315.664 174.916C315.664 174.916 313.855 207.273 277.99 210V206.809C277.99 206.809 296.041 202.255 300.773 179.92C305.505 157.584 303.487 69.6486 303.487 69.6486C303.487 69.6486 300.55 45.5001 283.182 41.3956L238.744 36.8414V33.6647Z" fill="#4D6051"/>
<path d="M253.83 57.9257C253.83 57.9257 292.854 72.2771 297.141 120.813C297.141 120.813 297.363 130.161 296.695 135.165C296.695 135.165 294.218 183.237 241.43 199.641L241.207 196.45C241.207 196.45 274.817 166.369 277.531 138.355L278.213 115.345C278.213 115.345 276.863 83.6767 253.176 60.2028L253.83 57.9257Z" fill="#4D6051"/>
</g>
<path d="M4.68362 100.418C4.5862 100.418 4.5027 100.333 4.5027 100.235V76.3956C4.5027 76.2972 4.5862 76.2129 4.68362 76.2129H21.8297C21.9271 76.2129 22.0106 76.2972 22.0106 76.3956V77.0422C22.0106 77.1406 21.9271 77.2249 21.8297 77.2249H5.61608V87.6406H20.1178C20.2153 87.6406 20.2988 87.7249 20.2988 87.8233V88.4699C20.2988 88.5683 20.2153 88.6526 20.1178 88.6526H5.61608V99.4338H22.4003C22.4977 99.4338 22.5812 99.5181 22.5812 99.6165V100.263C22.5812 100.361 22.4977 100.446 22.4003 100.446H4.68362V100.418Z" fill="white"/>
<path d="M21.8297 76.3956V77.0422H5.44907V87.8093H5.25423V88.4558H5.44907V99.5884H22.4003V100.235H4.68362V76.3956H21.8297ZM20.1178 87.8093V88.4558H5.44907V87.8093H20.1178ZM21.8297 76.0442H4.68362C4.48878 76.0442 4.33569 76.1988 4.33569 76.3956V100.235C4.33569 100.432 4.48878 100.586 4.68362 100.586H22.4003C22.5951 100.586 22.7482 100.432 22.7482 100.235V99.5884C22.7482 99.3916 22.5951 99.237 22.4003 99.237H5.797V88.8072H20.1178C20.3127 88.8072 20.4658 88.6526 20.4658 88.4558V87.8093C20.4658 87.6125 20.3127 87.4578 20.1178 87.4578H5.797V77.3936H21.8297C22.0245 77.3936 22.1776 77.239 22.1776 77.0422V76.3956C22.1776 76.1988 22.0245 76.0442 21.8297 76.0442Z" fill="white"/>
<path d="M30.0826 100.418C29.9852 100.418 29.9017 100.333 29.9017 100.235V76.3956C29.9017 76.2972 29.9852 76.2129 30.0826 76.2129H40.1587C42.9839 76.2129 45.489 76.747 47.6044 77.7872C49.7198 78.8273 51.4038 80.2751 52.5729 82.0884C53.7558 83.9016 54.3543 85.996 54.3543 88.3153C54.3543 90.6346 53.7558 92.729 52.5729 94.5422C51.3899 96.3555 49.7198 97.8032 47.6044 98.8434C45.489 99.8836 42.9839 100.404 40.1587 100.404H30.0826V100.418ZM40.0752 99.4197C42.7473 99.4197 45.0993 98.9277 47.0755 97.9719C49.0379 97.0161 50.5827 95.6948 51.6404 94.0362C52.712 92.3776 53.2409 90.4659 53.2409 88.3294C53.2409 86.1928 52.6981 84.2671 51.6404 82.6225C50.5688 80.9639 49.0379 79.6426 47.0755 78.6868C45.0993 77.731 42.7473 77.239 40.0752 77.239H31.0151V99.4338H40.0752V99.4197Z" fill="white"/>
<path d="M40.1587 76.3956C42.97 76.3956 45.4333 76.9157 47.5348 77.9418C49.6363 78.9819 51.2786 80.3876 52.4337 82.1868C53.6027 83.986 54.1873 86.0241 54.1873 88.3153C54.1873 90.6064 53.6027 92.6587 52.4337 94.4438C51.2646 96.243 49.6363 97.6486 47.5348 98.6888C45.4333 99.7289 42.97 100.235 40.1587 100.235H30.0826V76.3956H40.1587ZM30.8341 99.5884H40.0752C42.789 99.5884 45.141 99.0964 47.1451 98.1265C49.1492 97.1566 50.694 95.8213 51.7796 94.1205C52.8651 92.4337 53.4079 90.494 53.4079 88.3153C53.4079 86.1366 52.8651 84.1968 51.7796 82.5101C50.694 80.8233 49.1492 79.488 47.1451 78.504C45.141 77.5341 42.789 77.0422 40.0752 77.0422H30.8341V99.5884ZM40.1587 76.0442H30.0826C29.8878 76.0442 29.7347 76.1988 29.7347 76.3956V100.235C29.7347 100.432 29.8878 100.586 30.0826 100.586H40.1587C43.0117 100.586 45.5446 100.052 47.6879 98.998C49.8451 97.9438 51.543 96.4679 52.7259 94.6406C53.9228 92.7992 54.5352 90.6627 54.5352 88.3153C54.5352 85.9679 53.9228 83.8313 52.7259 81.99C51.5291 80.1486 49.8312 78.6868 47.6879 77.6325C45.5446 76.5783 43.0117 76.0442 40.1587 76.0442ZM31.1821 77.3936H40.0752C42.7194 77.3936 45.0436 77.8715 46.992 78.8273C48.9265 79.7691 50.4435 81.0763 51.4873 82.7068C52.5311 84.3374 53.06 86.2209 53.06 88.3153C53.06 90.4097 52.5311 92.3072 51.4873 93.9378C50.4435 95.5683 48.9265 96.8755 46.992 97.8173C45.0436 98.759 42.7194 99.251 40.0752 99.251H31.1821V77.3936Z" fill="white"/>
<path d="M71.5281 100.516C68.3272 100.516 65.7664 99.6587 63.9015 97.9579C62.0366 96.2571 61.0902 93.6567 61.0902 90.2691V76.4097C61.0902 76.3113 61.1737 76.2269 61.2711 76.2269H62.0366C62.134 76.2269 62.2175 76.3113 62.2175 76.4097V90.241C62.2175 93.3474 63.0386 95.7089 64.653 97.2269C66.2674 98.7591 68.5916 99.5321 71.556 99.5321C74.5203 99.5321 76.8306 98.7591 78.445 97.2269C80.0594 95.6948 80.8805 93.3474 80.8805 90.241V76.4097C80.8805 76.3113 80.964 76.2269 81.0614 76.2269H81.8269C81.9243 76.2269 82.0078 76.3113 82.0078 76.4097V90.2691C82.0078 93.6707 81.0614 96.2571 79.1965 97.9579C77.2899 99.6587 74.7152 100.516 71.5281 100.516Z" fill="white"/>
<path d="M81.7851 76.3956V90.255C81.7851 93.6145 80.8666 96.1305 79.0295 97.8173C77.1924 99.504 74.6873 100.333 71.5142 100.333C68.3411 100.333 65.836 99.49 63.9989 97.8173C62.1618 96.1305 61.2433 93.6145 61.2433 90.255V76.3956H62.0087V90.2269C62.0087 93.4036 62.8438 95.7791 64.4999 97.3394C66.1561 98.8996 68.4942 99.6868 71.5142 99.6868C74.5342 99.6868 76.8723 98.8996 78.5285 97.3394C80.1847 95.7791 81.0197 93.4036 81.0197 90.2269V76.3956H81.7851ZM81.7851 76.0442H81.0197C80.8248 76.0442 80.6717 76.1988 80.6717 76.3956V90.2269C80.6717 93.2912 79.8646 95.5964 78.2919 97.0864C76.7053 98.5763 74.4229 99.3354 71.5142 99.3354C68.6055 99.3354 66.3231 98.5763 64.7365 97.0864C63.1639 95.5964 62.3567 93.2912 62.3567 90.2269V76.3956C62.3567 76.1988 62.2036 76.0442 62.0087 76.0442H61.2572C61.0624 76.0442 60.9093 76.1988 60.9093 76.3956V90.255C60.9093 93.6988 61.8696 96.3414 63.7762 98.0703C65.669 99.7992 68.2715 100.685 71.5142 100.685C74.7569 100.685 77.3595 99.8133 79.2522 98.0703C81.1589 96.3273 82.1191 93.6988 82.1191 90.255V76.3956C82.1331 76.1988 81.98 76.0442 81.7851 76.0442Z" fill="white"/>
<path d="M110.984 100.418C110.914 100.418 110.858 100.376 110.83 100.319L107.156 93.235H91.0819L87.4077 100.319C87.3799 100.376 87.3242 100.418 87.2546 100.418H86.3779C86.3222 100.418 86.2665 100.39 86.2248 100.333C86.1969 100.277 86.1969 100.221 86.2248 100.165L98.5833 76.3253C98.6111 76.2691 98.6668 76.2269 98.7364 76.2269H99.5018C99.5714 76.2269 99.6271 76.2691 99.6549 76.3253L112.013 100.165C112.041 100.221 112.041 100.291 112.013 100.333C111.986 100.39 111.93 100.418 111.86 100.418H110.984ZM106.641 92.2229L99.126 77.6888L91.5968 92.2229H106.641Z" fill="white"/>
<path d="M99.5018 76.3956L111.86 100.235H110.984L107.268 93.0522H107.755L107.379 92.4056H106.934L99.126 77.3093L99.3209 76.9438H98.9451L99.126 77.3093L91.3185 92.4056H90.8453L90.4695 93.0522H90.9984L87.2824 100.235H86.4057L98.7642 76.3956H99.5018ZM106.934 92.4056L107.268 93.0522H90.9844L91.3185 92.4056H106.934ZM99.5018 76.0442H98.7363C98.6111 76.0442 98.4858 76.1145 98.4302 76.2269L86.0717 100.08C86.016 100.193 86.016 100.319 86.0856 100.432C86.1552 100.53 86.2665 100.6 86.3778 100.6H87.2546C87.3799 100.6 87.5051 100.53 87.5608 100.418L91.1793 93.4177H107.045L110.663 100.418C110.719 100.53 110.844 100.6 110.97 100.6H111.846C111.972 100.6 112.083 100.53 112.139 100.432C112.208 100.333 112.208 100.193 112.153 100.08L99.808 76.241C99.7523 76.1145 99.627 76.0442 99.5018 76.0442ZM91.8891 92.0542L99.126 78.0683L106.363 92.0542H91.8891Z" fill="white"/>
<path d="M136.16 100.418C136.104 100.418 136.062 100.39 136.021 100.347L129.313 92.0121C128.38 92.1667 127.35 92.251 126.265 92.251H118.193V100.249C118.193 100.347 118.109 100.432 118.012 100.432H117.246C117.149 100.432 117.065 100.347 117.065 100.249V76.3956C117.065 76.2972 117.149 76.2129 117.246 76.2129H126.251C128.436 76.2129 130.356 76.5362 131.929 77.1547C133.516 77.7872 134.74 78.7149 135.603 79.8816C136.452 81.0623 136.897 82.5241 136.897 84.2109C136.897 85.8695 136.466 87.3314 135.603 88.5121C134.754 89.7069 133.516 90.6346 131.929 91.2671C131.484 91.4498 130.996 91.6045 130.495 91.731L137.231 100.094C137.273 100.151 137.287 100.221 137.259 100.277C137.231 100.333 137.176 100.376 137.106 100.376H136.16V100.418ZM126.348 91.239C129.41 91.239 131.776 90.6205 133.39 89.3836C134.991 88.1607 135.798 86.4318 135.798 84.2249C135.798 82.0041 134.991 80.2611 133.39 79.0522C131.776 77.8294 129.41 77.2109 126.348 77.2109H118.193V91.2249H126.348V91.239Z" fill="white"/>
<path d="M126.265 76.3956C128.45 76.3956 130.315 76.7048 131.873 77.3374C133.432 77.9558 134.629 78.8554 135.464 80.008C136.299 81.1607 136.716 82.5803 136.716 84.2249C136.716 85.8554 136.299 87.2611 135.464 88.4277C134.629 89.5944 133.432 90.494 131.873 91.1125C131.344 91.3233 130.788 91.492 130.189 91.6325L130.134 91.5623H129.187L129.368 91.7872C128.408 91.9558 127.378 92.0402 126.251 92.0402H117.998V91.7309L117.65 92.0402H117.998V100.207H117.232V76.3956H126.265ZM117.678 77.0422H118.026V91.4076H117.678L118.026 91.6747V91.4076H126.348C129.466 91.4076 131.845 90.7751 133.502 89.5241C135.144 88.259 135.979 86.502 135.979 84.2249C135.979 81.9337 135.158 80.1627 133.502 78.9117C131.859 77.6607 129.466 77.0422 126.348 77.0422H118.026V76.7751L117.678 77.0422ZM130.203 91.6466L137.106 100.235H136.16L129.382 91.8153C129.66 91.7731 129.939 91.7169 130.203 91.6466ZM126.265 76.0442H117.26C117.065 76.0442 116.912 76.1988 116.912 76.3956V100.235C116.912 100.432 117.065 100.586 117.26 100.586H118.026C118.22 100.586 118.374 100.432 118.374 100.235V92.4197H126.279C127.336 92.4197 128.338 92.3494 129.243 92.1948L135.881 100.46C135.951 100.544 136.048 100.586 136.146 100.586H137.092C137.231 100.586 137.343 100.502 137.412 100.39C137.468 100.263 137.454 100.123 137.371 100.01L130.802 91.8574C131.219 91.745 131.623 91.6044 131.999 91.4498C133.613 90.8032 134.879 89.8615 135.742 88.6386C136.619 87.4157 137.064 85.9257 137.064 84.2249C137.064 82.496 136.619 81.006 135.742 79.7972C134.865 78.5884 133.613 77.6466 131.999 77C130.412 76.3675 128.477 76.0442 126.265 76.0442ZM118.36 77.3936H126.334C129.354 77.3936 131.692 77.998 133.279 79.1928C134.852 80.3876 135.617 82.0321 135.617 84.2249C135.617 86.4036 134.852 88.0342 133.279 89.243C131.706 90.4518 129.368 91.0562 126.348 91.0562H118.374V77.3936H118.36Z" fill="white"/>
<path d="M144.482 100.418C144.385 100.418 144.301 100.333 144.301 100.235V76.3956C144.301 76.2972 144.385 76.2129 144.482 76.2129H154.558C157.384 76.2129 159.889 76.747 162.004 77.7872C164.133 78.8273 165.804 80.2751 166.973 82.0884C168.156 83.9016 168.754 85.996 168.754 88.3153C168.754 90.6346 168.156 92.729 166.973 94.5422C165.79 96.3555 164.12 97.8032 162.004 98.8434C159.889 99.8836 157.384 100.404 154.558 100.404H144.482V100.418ZM154.475 99.4197C157.147 99.4197 159.499 98.9277 161.475 97.9719C163.438 97.0161 164.982 95.6948 166.04 94.0362C167.112 92.3776 167.641 90.4659 167.641 88.3294C167.641 86.1928 167.098 84.2671 166.04 82.6225C164.969 80.9639 163.438 79.6426 161.475 78.6868C159.499 77.731 157.147 77.239 154.475 77.239H145.415V99.4338H154.475V99.4197Z" fill="white"/>
<path d="M154.558 76.3956C157.37 76.3956 159.833 76.9157 161.935 77.9418C164.036 78.9819 165.678 80.3876 166.833 82.1868C168.002 83.986 168.587 86.0241 168.587 88.3153C168.587 90.6064 168.002 92.6587 166.833 94.4438C165.664 96.243 164.036 97.6486 161.935 98.6888C159.833 99.7289 157.37 100.235 154.558 100.235H144.482V76.3956H154.558ZM145.234 99.5884H154.475C157.189 99.5884 159.541 99.0964 161.545 98.1265C163.549 97.1566 165.094 95.8213 166.179 94.1205C167.265 92.4337 167.808 90.494 167.808 88.3153C167.808 86.1366 167.265 84.1968 166.179 82.5101C165.094 80.8233 163.549 79.488 161.545 78.504C159.541 77.5341 157.189 77.0422 154.475 77.0422H145.234V99.5884ZM154.558 76.0442H144.482C144.287 76.0442 144.134 76.1988 144.134 76.3956V100.235C144.134 100.432 144.287 100.586 144.482 100.586H154.558C157.411 100.586 159.944 100.052 162.088 98.998C164.245 97.9438 165.943 96.4679 167.126 94.6406C168.323 92.7992 168.935 90.6627 168.935 88.3153C168.935 85.9679 168.323 83.8313 167.126 81.99C165.929 80.1486 164.231 78.6868 162.088 77.6325C159.944 76.5783 157.411 76.0442 154.558 76.0442ZM145.582 77.3936H154.475C157.119 77.3936 159.443 77.8715 161.392 78.8273C163.326 79.7691 164.843 81.0763 165.887 82.7068C166.931 84.3374 167.46 86.2209 167.46 88.3153C167.46 90.4097 166.931 92.3072 165.887 93.9378C164.843 95.5683 163.326 96.8755 161.392 97.8173C159.443 98.759 157.119 99.251 154.475 99.251H145.582V77.3936Z" fill="white"/>
<path d="M186.721 100.516C184.759 100.516 182.922 100.207 181.238 99.6024C179.568 98.998 178.092 98.1265 176.854 97.0301C175.615 95.9338 174.627 94.6265 173.945 93.1647C173.249 91.6888 172.901 90.0583 172.901 88.3153C172.901 86.5723 173.249 84.9418 173.945 83.4799C174.641 82.0181 175.615 80.7109 176.854 79.6145C178.092 78.5181 179.568 77.6466 181.238 77.0422C182.908 76.4378 184.745 76.1285 186.721 76.1285C188.683 76.1285 190.521 76.4378 192.205 77.0422C193.875 77.6466 195.35 78.5181 196.588 79.6145C197.827 80.7109 198.815 82.0181 199.497 83.4799C200.179 84.9418 200.541 86.5723 200.541 88.3153C200.541 90.0583 200.193 91.6888 199.497 93.1647C198.801 94.6406 197.827 95.9338 196.588 97.0301C195.35 98.1265 193.875 98.998 192.205 99.6024C190.521 100.207 188.683 100.516 186.721 100.516ZM186.721 77.1265C184.926 77.1265 183.228 77.4077 181.683 77.9699C180.138 78.5322 178.774 79.3193 177.633 80.3314C176.492 81.3434 175.587 82.5382 174.961 83.8876C174.335 85.237 174.015 86.7269 174.015 88.3293C174.015 89.9318 174.335 91.4217 174.961 92.7711C175.601 94.1205 176.492 95.3153 177.633 96.3273C178.774 97.3394 180.138 98.1406 181.683 98.6888C183.228 99.251 184.926 99.5322 186.721 99.5322C188.516 99.5322 190.214 99.251 191.759 98.6888C193.304 98.1265 194.668 97.3394 195.809 96.3273C196.95 95.3153 197.855 94.1205 198.481 92.7711C199.108 91.4217 199.428 89.9318 199.428 88.3293C199.428 86.7269 199.108 85.237 198.481 83.8876C197.841 82.5382 196.95 81.3434 195.809 80.3314C194.668 79.3193 193.304 78.5181 191.759 77.9699C190.2 77.4077 188.516 77.1265 186.721 77.1265Z" fill="white"/>
<path d="M186.721 76.2972C188.67 76.2972 190.479 76.5924 192.135 77.1968C193.791 77.8012 195.238 78.6446 196.463 79.7269C197.688 80.8233 198.648 82.0884 199.33 83.5362C200.012 84.984 200.36 86.5723 200.36 88.3012C200.36 90.0301 200.012 91.6185 199.33 93.0663C198.648 94.5141 197.688 95.7932 196.463 96.8755C195.238 97.9719 193.791 98.8153 192.135 99.4056C190.479 100.01 188.67 100.305 186.721 100.305C184.773 100.305 182.963 100.01 181.307 99.4056C179.651 98.8012 178.204 97.9578 176.979 96.8755C175.754 95.7932 174.794 94.5141 174.112 93.0663C173.43 91.6185 173.082 90.0301 173.082 88.3012C173.082 86.5723 173.43 84.984 174.112 83.5362C174.794 82.0884 175.754 80.8093 176.979 79.7269C178.204 78.6446 179.651 77.7872 181.307 77.1968C182.963 76.5924 184.773 76.2972 186.721 76.2972ZM186.721 99.6868C188.544 99.6868 190.242 99.4056 191.815 98.8293C193.388 98.2671 194.751 97.4659 195.92 96.4257C197.089 95.3856 197.994 94.1908 198.634 92.8133C199.274 91.4358 199.609 89.9317 199.609 88.3012C199.609 86.6707 199.288 85.1667 198.634 83.7892C197.994 82.4117 197.076 81.2169 195.92 80.1767C194.751 79.1366 193.388 78.3494 191.815 77.7731C190.242 77.2109 188.544 76.9157 186.721 76.9157C184.898 76.9157 183.2 77.1968 181.627 77.7731C180.055 78.3354 178.691 79.1366 177.522 80.1767C176.353 81.2169 175.448 82.4117 174.808 83.7892C174.168 85.1667 173.834 86.6707 173.834 88.3012C173.834 89.9317 174.154 91.4358 174.808 92.8133C175.448 94.1908 176.367 95.3856 177.522 96.4257C178.691 97.4659 180.055 98.253 181.627 98.8293C183.2 99.4056 184.898 99.6868 186.721 99.6868ZM186.721 75.9458C184.731 75.9458 182.88 76.255 181.182 76.8735C179.484 77.492 177.995 78.3635 176.742 79.4739C175.476 80.5844 174.488 81.9056 173.792 83.3956C173.082 84.8856 172.734 86.5442 172.734 88.3153C172.734 90.0864 173.096 91.745 173.792 93.235C174.488 94.7249 175.49 96.0462 176.742 97.1567C177.995 98.2671 179.498 99.1526 181.182 99.757C182.866 100.376 184.731 100.685 186.721 100.685C188.711 100.685 190.562 100.376 192.26 99.757C193.958 99.1386 195.447 98.2671 196.7 97.1567C197.952 96.0462 198.954 94.7249 199.65 93.235C200.36 91.745 200.708 90.0864 200.708 88.3153C200.708 86.5442 200.346 84.8856 199.65 83.3956C198.94 81.9056 197.952 80.5844 196.7 79.4739C195.447 78.3635 193.944 77.4779 192.26 76.8735C190.562 76.255 188.697 75.9458 186.721 75.9458ZM186.721 99.3354C184.94 99.3354 183.27 99.0542 181.739 98.506C180.222 97.9579 178.872 97.1707 177.745 96.1727C176.617 95.1747 175.74 93.994 175.114 92.6727C174.488 91.3514 174.182 89.8896 174.182 88.3153C174.182 86.741 174.502 85.2791 175.114 83.9579C175.74 82.6366 176.617 81.4558 177.745 80.4579C178.872 79.4599 180.222 78.6727 181.739 78.1245C183.27 77.5763 184.94 77.2952 186.721 77.2952C188.489 77.2952 190.173 77.5763 191.704 78.1245C193.22 78.6727 194.57 79.4599 195.698 80.4579C196.825 81.4558 197.716 82.6366 198.328 83.9579C198.954 85.2791 199.261 86.741 199.261 88.3153C199.261 89.8896 198.94 91.3514 198.328 92.6727C197.702 93.994 196.825 95.1747 195.698 96.1727C194.57 97.1707 193.22 97.9579 191.704 98.506C190.173 99.0542 188.503 99.3354 186.721 99.3354Z" fill="white"/>
<path d="M4.68362 141.279C4.5862 141.279 4.5027 141.195 4.5027 141.096V117.271C4.5027 117.173 4.5862 117.088 4.68362 117.088H13.9247C16.5272 117.088 18.8235 117.623 20.772 118.663C22.7204 119.703 24.2652 121.151 25.3368 122.964C26.4224 124.777 26.9651 126.872 26.9651 129.177C26.9651 131.482 26.4224 133.59 25.3368 135.404C24.2513 137.217 22.7204 138.665 20.772 139.705C18.8235 140.745 16.5272 141.279 13.9247 141.279H4.68362ZM13.8551 140.281C16.3045 140.281 18.4617 139.789 20.257 138.833C22.0523 137.878 23.4719 136.556 24.4461 134.898C25.4203 133.239 25.9213 131.313 25.9213 129.177C25.9213 127.04 25.4203 125.114 24.4461 123.456C23.4719 121.797 22.0523 120.476 20.257 119.52C18.4478 118.564 16.3045 118.072 13.8551 118.072H5.56041V140.281H13.8551Z" fill="white"/>
<path d="M13.9247 117.257C16.4994 117.257 18.7679 117.777 20.6884 118.803C22.6229 119.843 24.1121 121.249 25.1837 123.048C26.2553 124.847 26.7842 126.886 26.7842 129.177C26.7842 131.468 26.2553 133.52 25.1837 135.305C24.1121 137.104 22.609 138.51 20.6884 139.55C18.754 140.59 16.4994 141.096 13.9247 141.096H4.68362V117.257H13.9247ZM5.37949 140.45H13.8551C16.3463 140.45 18.5034 139.958 20.3405 138.988C22.1776 138.018 23.5972 136.683 24.5992 134.982C25.6012 133.295 26.1023 131.355 26.1023 129.177C26.1023 126.998 25.6012 125.058 24.5992 123.372C23.5972 121.685 22.1776 120.349 20.3405 119.365C18.5034 118.396 16.3463 117.904 13.8551 117.904H5.37949V140.45ZM13.9247 116.906H4.68362C4.48878 116.906 4.33569 117.074 4.33569 117.257V141.096C4.33569 141.293 4.48878 141.448 4.68362 141.448H13.9247C16.555 141.448 18.8792 140.914 20.8555 139.859C22.8317 138.805 24.3904 137.329 25.4899 135.488C26.5894 133.647 27.146 131.524 27.146 129.177C27.146 126.829 26.5894 124.707 25.4899 122.865C24.3904 121.024 22.8317 119.562 20.8555 118.494C18.8792 117.454 16.555 116.906 13.9247 116.906ZM5.72742 118.255H13.8551C16.2767 118.255 18.406 118.733 20.1874 119.675C21.9549 120.616 23.3466 121.924 24.3069 123.54C25.2672 125.171 25.7543 127.068 25.7543 129.163C25.7543 131.271 25.2672 133.155 24.3069 134.785C23.3466 136.416 21.9549 137.709 20.1874 138.651C18.406 139.592 16.2767 140.07 13.8551 140.07H5.72742V118.255Z" fill="white"/>
<path d="M33.4923 141.279C33.3949 141.279 33.3114 141.195 33.3114 141.096V117.271C33.3114 117.173 33.3949 117.088 33.4923 117.088H49.2188C49.3162 117.088 49.3997 117.173 49.3997 117.271V117.918C49.3997 118.016 49.3162 118.1 49.2188 118.1H34.3691V128.516H47.6601C47.7575 128.516 47.841 128.6 47.841 128.699V129.317C47.841 129.416 47.7575 129.5 47.6601 129.5H34.3691V140.281H49.7477C49.8451 140.281 49.9286 140.365 49.9286 140.464V141.11C49.9286 141.209 49.8451 141.293 49.7477 141.293H33.4923V141.279Z" fill="white"/>
<path d="M49.2188 117.257V117.904H34.1882V128.671H34.0073V129.317H34.1882V140.45H49.7477V141.096H33.4923V117.257H49.2188ZM47.6601 128.671V129.317H34.2021V128.671H47.6601ZM49.2188 116.906H33.4923C33.2975 116.906 33.1444 117.06 33.1444 117.257V141.096C33.1444 141.293 33.2975 141.448 33.4923 141.448H49.7477C49.9425 141.448 50.0956 141.293 50.0956 141.096V140.45C50.0956 140.253 49.9425 140.098 49.7477 140.098H34.5361V129.669H47.6462C47.841 129.669 47.9941 129.514 47.9941 129.317V128.671C47.9941 128.474 47.841 128.319 47.6462 128.319H34.5361V118.255H49.2188C49.4136 118.255 49.5667 118.1 49.5667 117.904V117.257C49.5667 117.074 49.4136 116.906 49.2188 116.906Z" fill="white"/>
<path d="M80.1568 141.279C80.0594 141.279 79.9759 141.195 79.9759 141.096V119.365L69.19 137.821C69.1622 137.878 69.1065 137.906 69.037 137.906H68.6194C68.5638 137.906 68.5081 137.878 68.4663 137.821L57.6666 119.422V141.096C57.6666 141.195 57.5831 141.279 57.4856 141.279H56.7898C56.6924 141.279 56.6089 141.195 56.6089 141.096V117.271C56.6089 117.173 56.6924 117.088 56.7898 117.088H57.3882C57.4439 117.088 57.4996 117.116 57.5413 117.173L68.856 136.472L80.129 117.173C80.1568 117.116 80.2125 117.088 80.2821 117.088H80.8805C80.9779 117.088 81.0614 117.173 81.0614 117.271V141.11C81.0614 141.209 80.9779 141.293 80.8805 141.293H80.1568V141.279Z" fill="white"/>
<path d="M80.8666 117.257V141.096H80.1707V118.733L80.4491 118.255H80.1707V118.733L69.0509 137.737H68.6334L57.5135 118.789V118.255H57.1934L57.5135 118.789V141.11H56.8176V117.257H57.4161L68.8699 136.809L68.7169 137.076H69.037L68.8839 136.809L80.3099 117.257H80.8666ZM80.8666 116.906H80.2682C80.1429 116.906 80.0316 116.976 79.962 117.074L68.8421 136.106L57.6805 117.088C57.6109 116.976 57.4996 116.92 57.3743 116.92H56.7759C56.581 116.92 56.4279 117.074 56.4279 117.271V141.11C56.4279 141.307 56.581 141.462 56.7759 141.462H57.4717C57.6666 141.462 57.8197 141.307 57.8197 141.11V120.068L68.2993 137.906C68.3689 138.018 68.4803 138.074 68.6055 138.074H69.023C69.1483 138.074 69.2596 138.004 69.3292 137.906L79.8089 120.012V141.096C79.8089 141.293 79.962 141.448 80.1568 141.448H80.8527C81.0475 141.448 81.2006 141.293 81.2006 141.096V117.257C81.2145 117.074 81.0475 116.906 80.8666 116.906Z" fill="white"/>
<path d="M108.381 141.279C108.311 141.279 108.256 141.237 108.228 141.181L104.86 134.096H90.1355L86.7675 141.181C86.7397 141.237 86.684 141.279 86.6144 141.279H85.8072C85.7516 141.279 85.6959 141.251 85.6541 141.195C85.6124 141.139 85.6124 141.082 85.6402 141.026L96.9828 117.187C97.0106 117.131 97.0663 117.088 97.1359 117.088H97.8317C97.9013 117.088 97.957 117.131 97.9848 117.187L109.327 141.026C109.355 141.082 109.355 141.139 109.313 141.195C109.272 141.251 109.23 141.279 109.16 141.279H108.381ZM104.387 133.098L97.4977 118.592L90.6087 133.098H104.387Z" fill="white"/>
<path d="M97.8456 117.257L109.188 141.096H108.381L104.971 133.914H105.417L105.069 133.267H104.665L97.4977 118.171L97.6786 117.805H97.3307L97.5116 118.171L90.3442 133.267H89.8989L89.551 133.914H90.0381L86.6283 141.096H85.8211L97.1637 117.257H97.8456ZM104.665 133.267L104.971 133.914H90.0241L90.3303 133.267H104.665ZM97.8456 116.906H97.1498C97.0106 116.906 96.8993 116.99 96.8297 117.102L85.4871 140.942C85.4315 141.054 85.4454 141.181 85.501 141.279C85.5706 141.378 85.682 141.448 85.7933 141.448H86.6005C86.7397 141.448 86.851 141.363 86.9206 141.251L90.2329 134.265H104.735L108.047 141.251C108.103 141.378 108.228 141.448 108.367 141.448H109.174C109.3 141.448 109.411 141.392 109.467 141.279C109.536 141.181 109.536 141.054 109.48 140.942L98.1379 117.102C98.1101 116.99 97.9848 116.906 97.8456 116.906ZM90.887 132.916L97.4977 118.986L104.108 132.916H90.887Z" fill="white"/>
<path d="M131.47 141.279C131.414 141.279 131.358 141.251 131.331 141.209L125.179 132.874C124.33 133.028 123.384 133.098 122.396 133.098H115.006V141.096C115.006 141.195 114.922 141.279 114.825 141.279H114.129C114.031 141.279 113.948 141.195 113.948 141.096V117.271C113.948 117.173 114.031 117.088 114.129 117.088H122.396C124.414 117.088 126.167 117.412 127.615 118.03C129.076 118.663 130.203 119.59 130.983 120.771C131.762 121.952 132.166 123.4 132.166 125.086C132.166 126.745 131.762 128.193 130.983 129.388C130.203 130.582 129.062 131.51 127.615 132.143C127.197 132.325 126.766 132.48 126.292 132.606L132.472 140.984C132.514 141.04 132.514 141.11 132.486 141.167C132.458 141.223 132.402 141.265 132.333 141.265H131.47V141.279ZM122.479 132.1C125.29 132.1 127.448 131.482 128.923 130.245C130.384 129.022 131.122 127.293 131.122 125.086C131.122 122.865 130.384 121.123 128.923 119.914C127.448 118.691 125.277 118.086 122.479 118.086H115.02V132.1H122.479Z" fill="white"/>
<path d="M122.41 117.257C124.414 117.257 126.125 117.566 127.559 118.199C128.992 118.817 130.092 119.717 130.857 120.869C131.623 122.022 132.012 123.442 132.012 125.086C132.012 126.717 131.623 128.123 130.857 129.289C130.092 130.456 128.992 131.355 127.559 131.974C127.072 132.185 126.571 132.353 126.014 132.494L125.972 132.424H125.096L125.263 132.649C124.386 132.817 123.439 132.902 122.41 132.902H114.839V132.592L114.518 132.902H114.839V141.068H114.143V117.257H122.41ZM114.518 117.904H114.839V132.269H114.518L114.839 132.536V132.269H122.479C125.346 132.269 127.531 131.637 129.034 130.386C130.551 129.121 131.303 127.363 131.303 125.086C131.303 122.795 130.551 121.024 129.034 119.773C127.517 118.522 125.332 117.904 122.479 117.904H114.839V117.637L114.518 117.904ZM126.014 132.522L132.346 141.11H131.47L125.263 132.691C125.513 132.635 125.764 132.578 126.014 132.522ZM122.41 116.906H114.143C113.948 116.906 113.795 117.06 113.795 117.257V141.096C113.795 141.293 113.948 141.448 114.143 141.448H114.839C115.033 141.448 115.187 141.293 115.187 141.096V133.281H122.41C123.37 133.281 124.274 133.211 125.11 133.07L131.191 141.321C131.261 141.406 131.358 141.462 131.47 141.462H132.346C132.472 141.462 132.597 141.392 132.653 141.265C132.708 141.153 132.694 140.998 132.625 140.9L126.599 132.719C126.974 132.606 127.35 132.466 127.698 132.311C129.187 131.665 130.342 130.709 131.15 129.486C131.957 128.263 132.36 126.787 132.36 125.086C132.36 123.372 131.957 121.882 131.15 120.673C130.342 119.464 129.187 118.522 127.698 117.876C126.223 117.243 124.441 116.906 122.41 116.906ZM115.187 118.255H122.479C125.249 118.255 127.378 118.859 128.812 120.054C130.231 121.221 130.955 122.922 130.955 125.1C130.955 127.279 130.259 128.924 128.812 130.118C127.364 131.313 125.235 131.932 122.479 131.932H115.187V118.255Z" fill="white"/>
<path d="M143.327 141.279C143.23 141.279 143.146 141.195 143.146 141.096V118.086H134.253C134.156 118.086 134.072 118.002 134.072 117.904V117.257C134.072 117.159 134.156 117.074 134.253 117.074H153.083C153.181 117.074 153.264 117.159 153.264 117.257V117.904C153.264 118.002 153.181 118.086 153.083 118.086H144.19V141.096C144.19 141.195 144.107 141.279 144.009 141.279H143.327Z" fill="white"/>
<path d="M153.097 117.257V117.904H144.023V141.096H143.327V117.904H134.253V117.257H153.097ZM153.097 116.906H134.267C134.072 116.906 133.919 117.06 133.919 117.257V117.904C133.919 118.1 134.072 118.255 134.267 118.255H142.993V141.096C142.993 141.293 143.146 141.448 143.341 141.448H144.037C144.232 141.448 144.385 141.293 144.385 141.096V118.255H153.111C153.306 118.255 153.459 118.1 153.459 117.904V117.257C153.445 117.074 153.292 116.906 153.097 116.906Z" fill="white"/>
<path d="M157.871 141.279C157.773 141.279 157.69 141.195 157.69 141.096V117.271C157.69 117.173 157.773 117.088 157.871 117.088H158.567C158.664 117.088 158.747 117.173 158.747 117.271V141.11C158.747 141.209 158.664 141.293 158.567 141.293H157.871V141.279Z" fill="white"/>
<path d="M158.58 117.257V141.096H157.885V117.257H158.58ZM158.58 116.906H157.885C157.69 116.906 157.537 117.06 157.537 117.257V141.096C157.537 141.293 157.69 141.448 157.885 141.448H158.58C158.775 141.448 158.928 141.293 158.928 141.096V117.257C158.928 117.074 158.761 116.906 158.58 116.906Z" fill="white"/>
<path d="M186.443 141.279C186.387 141.279 186.345 141.251 186.304 141.209L168.726 119.028V141.096C168.726 141.195 168.643 141.279 168.545 141.279H167.849C167.752 141.279 167.668 141.195 167.668 141.096V117.271C167.668 117.173 167.752 117.088 167.849 117.088H168.448C168.503 117.088 168.545 117.116 168.587 117.159L186.164 139.339V117.271C186.164 117.173 186.248 117.088 186.345 117.088H187.041C187.139 117.088 187.222 117.173 187.222 117.271V141.11C187.222 141.209 187.139 141.293 187.041 141.293H186.443V141.279Z" fill="white"/>
<path d="M187.041 117.257V141.096H186.443L168.545 118.522V118.044H168.156L168.545 118.522V141.096H167.849V117.257H168.448L186.345 139.831V140.309H186.735L186.345 139.831V117.257H187.041ZM187.041 116.906H186.345C186.151 116.906 185.997 117.06 185.997 117.257V138.819L168.726 117.032C168.657 116.948 168.559 116.906 168.448 116.906H167.849C167.655 116.906 167.501 117.06 167.501 117.257V141.096C167.501 141.293 167.655 141.448 167.849 141.448H168.545C168.74 141.448 168.893 141.293 168.893 141.096V119.534L186.164 141.321C186.234 141.406 186.331 141.448 186.443 141.448H187.041C187.236 141.448 187.389 141.293 187.389 141.096V117.257C187.389 117.074 187.222 116.906 187.041 116.906Z" fill="white"/>
<path d="M198.565 141.279C198.467 141.279 198.384 141.195 198.384 141.096V117.271C198.384 117.173 198.467 117.088 198.565 117.088H199.261C199.358 117.088 199.441 117.173 199.441 117.271V141.11C199.441 141.209 199.358 141.293 199.261 141.293H198.565V141.279Z" fill="white"/>
<path d="M199.261 117.257V141.096H198.565V117.257H199.261ZM199.261 116.906H198.565C198.37 116.906 198.217 117.06 198.217 117.257V141.096C198.217 141.293 198.37 141.448 198.565 141.448H199.261C199.455 141.448 199.608 141.293 199.608 141.096V117.257C199.608 117.074 199.455 116.906 199.261 116.906Z" fill="white"/>
<defs>
<filter id="filter0_d_5_2" x="0.819962" y="148.072" width="163.018" height="28.8113" filterUnits="userSpaceOnUse" color-interpolation-filters="sRGB">
<feFlood flood-opacity="0" result="BackgroundImageFix"/>
<feColorMatrix in="SourceAlpha" type="matrix" values="0 0 0 0 0 0 0 0 0 0 0 0 0 0 0 0 0 0 127 0" result="hardAlpha"/>
<feOffset dy="4"/>
<feGaussianBlur stdDeviation="2"/>
<feComposite in2="hardAlpha" operator="out"/>
<feColorMatrix type="matrix" values="0 0 0 0 0 0 0 0 0 0 0 0 0 0 0 0 0 0 0.25 0"/>
<feBlend mode="normal" in2="BackgroundImageFix" result="effect1_dropShadow_5_2"/>
<feBlend mode="normal" in="SourceGraphic" in2="effect1_dropShadow_5_2" result="shape"/>
</filter>
<filter id="filter1_d_5_2" x="178.908" y="0" width="140.757" height="218" filterUnits="userSpaceOnUse" color-interpolation-filters="sRGB">
<feFlood flood-opacity="0" result="BackgroundImageFix"/>
<feColorMatrix in="SourceAlpha" type="matrix" values="0 0 0 0 0 0 0 0 0 0 0 0 0 0 0 0 0 0 127 0" result="hardAlpha"/>
<feOffset dy="4"/>
<feGaussianBlur stdDeviation="2"/>
<feComposite in2="hardAlpha" operator="out"/>
<feColorMatrix type="matrix" values="0 0 0 0 0 0 0 0 0 0 0 0 0 0 0 0 0 0 0.25 0"/>
<feBlend mode="normal" in2="BackgroundImageFix" result="effect1_dropShadow_5_2"/>
<feBlend mode="normal" in="SourceGraphic" in2="effect1_dropShadow_5_2" result="shape"/>
</filter>
</defs>
</svg>
