<svg width="163" height="75" viewBox="0 0 163 75" fill="none" xmlns="http://www.w3.org/2000/svg">
<g filter="url(#filter0_d_10_73)">
<path d="M117.455 46.1031V53.4036C117.455 53.4036 126.291 53.2123 129.824 44.0745C129.829 44.0789 120.829 48.3498 117.455 46.1031Z" fill="#4D6051"/>
<path d="M117.618 54.7872V57.6522C117.618 57.6522 126.402 57.2207 130.683 48.6211C130.683 48.6211 122.279 55.1119 117.618 54.7872Z" fill="#4D6051"/>
<path d="M116.671 12.6346C116.667 12.6346 116.658 12.6346 116.654 12.6346V16.207C128.917 16.256 138.841 26.3726 138.841 38.8426C138.841 51.3127 128.917 61.4337 116.654 61.4782V65.0906C116.658 65.0906 116.667 65.0906 116.671 65.0906C130.925 65.0906 142.479 53.3458 142.479 38.8604C142.479 24.3751 130.93 12.6346 116.671 12.6346Z" fill="#4D6051"/>
<path d="M117.565 0V2.32673H120.9C120.9 2.32673 125.049 1.8952 129.829 10.7617C129.829 10.7617 128.758 1.29905 122.345 0H117.565Z" fill="#4D6051"/>
<path d="M117.297 21.4166C117.297 21.4166 131.3 20.7449 132.502 34.7764C132.502 34.7764 130.864 25.2337 117.297 21.4166Z" fill="#4D6051"/>
<path d="M134.326 10.6549L148.32 10.4369C148.32 10.4369 157.46 11.0864 158.601 21.8303L158.671 55.361C158.671 55.361 158.099 65.6022 146.747 66.4653V65.4554C146.747 65.4554 152.461 64.014 153.958 56.9448C155.456 49.8756 154.817 22.0439 154.817 22.0439C154.817 22.0439 153.888 14.4008 148.39 13.1017L134.326 11.6603V10.6549Z" fill="#4D6051"/>
<path d="M139.101 18.3336C139.101 18.3336 151.452 22.8759 152.809 38.2376C152.809 38.2376 152.879 41.1961 152.668 42.7799C152.668 42.7799 151.884 57.9948 135.176 63.1866L135.106 62.1767C135.106 62.1767 145.743 52.6562 146.602 43.7897L146.818 36.507C146.818 36.507 146.391 26.4839 138.894 19.0543L139.101 18.3336Z" fill="#4D6051"/>
</g>
<g filter="url(#filter1_d_10_73)">
<path d="M23.7376 50.3824H28.3903V51.5096H24.9872V53.9703H28.3903V55.0974H24.9872V59.2092H23.7376V50.3824Z" fill="white" stroke="white" stroke-width="0.5" stroke-miterlimit="10"/>
<path d="M35.2985 50.2555C36.6503 50.2555 37.7741 50.6841 38.6701 51.5493C39.566 52.4145 40.014 53.4941 40.014 54.7958C40.014 56.0976 39.5582 57.1692 38.6544 58.0265C37.7506 58.8758 36.6031 59.3045 35.2278 59.3045C33.9153 59.3045 32.815 58.8758 31.9426 58.0265C31.0624 57.1692 30.6301 56.1056 30.6301 54.8197C30.6301 53.502 31.0702 52.4145 31.9505 51.5493C32.8307 50.6841 33.9467 50.2555 35.2985 50.2555ZM35.3456 51.4541C34.3475 51.4541 33.5223 51.7716 32.8857 52.3987C32.2491 53.0257 31.919 53.8354 31.919 54.8197C31.919 55.7722 32.2413 56.558 32.8857 57.193C33.5302 57.828 34.3397 58.1376 35.3064 58.1376C36.2809 58.1376 37.0904 57.8122 37.7427 57.1692C38.395 56.5263 38.7172 55.7246 38.7172 54.7641C38.7172 53.8275 38.395 53.0416 37.7427 52.4066C37.0983 51.7716 36.2966 51.4541 35.3456 51.4541Z" fill="white" stroke="white" stroke-width="0.5" stroke-miterlimit="10"/>
<path d="M41.2557 50.3666H48.5491V51.4937H45.4997V59.2012H44.2422V51.4937H41.2557V50.3666Z" fill="white" stroke="white" stroke-width="0.5" stroke-miterlimit="10"/>
<path d="M54.4592 50.2555C55.811 50.2555 56.9348 50.6841 57.8308 51.5493C58.7267 52.4145 59.1747 53.4941 59.1747 54.7958C59.1747 56.0976 58.7189 57.1692 57.8151 58.0265C56.9113 58.8758 55.7638 59.3045 54.3885 59.3045C53.076 59.3045 51.9757 58.8758 51.1033 58.0265C50.2231 57.1692 49.7908 56.1056 49.7908 54.8197C49.7908 53.502 50.2309 52.4145 51.1112 51.5493C51.9914 50.6841 53.1074 50.2555 54.4592 50.2555ZM54.5064 51.4541C53.5082 51.4541 52.683 51.7716 52.0464 52.3987C51.402 53.0337 51.0797 53.8354 51.0797 54.8197C51.0797 55.7722 51.402 56.558 52.0464 57.193C52.6909 57.828 53.5004 58.1376 54.4671 58.1376C55.4416 58.1376 56.2511 57.8122 56.9034 57.1692C57.5557 56.5263 57.878 55.7246 57.878 54.7641C57.878 53.8275 57.5557 53.0416 56.9034 52.4066C56.259 51.7716 55.4573 51.4541 54.5064 51.4541Z" fill="white" stroke="white" stroke-width="0.5" stroke-miterlimit="10"/>
<path d="M66.7117 54.8513H69.6432V58.5899C68.5665 59.0583 67.4977 59.2964 66.4445 59.2964C64.9984 59.2964 63.8431 58.8678 62.9786 58.0184C62.1141 57.1612 61.6819 56.1134 61.6819 54.8672C61.6819 53.5495 62.1298 52.4541 63.0258 51.581C63.9217 50.7078 65.0456 50.2712 66.3974 50.2712C66.8925 50.2712 67.3562 50.3268 67.7963 50.43C68.2364 50.5411 68.7944 50.7316 69.4703 51.0174V52.3033C68.425 51.6921 67.3955 51.3905 66.3738 51.3905C65.4228 51.3905 64.6133 51.7159 63.961 52.3747C63.3087 53.0336 62.9786 53.8353 62.9786 54.7957C62.9786 55.7959 63.3087 56.6135 63.961 57.2485C64.6133 57.8835 65.4543 58.201 66.4838 58.201C66.9868 58.201 67.5841 58.0819 68.2757 57.8517L68.3936 57.812V55.9784H66.7117V54.8513V54.8513Z" fill="white" stroke="white" stroke-width="0.5" stroke-miterlimit="10"/>
<path d="M72.7869 59.2012V50.3824H74.9718C75.852 50.3824 76.5593 50.6047 77.0702 51.0413C77.5889 51.4858 77.8483 52.0811 77.8483 52.8352C77.8483 53.3511 77.7225 53.7957 77.4632 54.1687C77.2117 54.5418 76.8423 54.8196 76.3707 55.0101C76.6458 55.1927 76.9209 55.4467 77.1881 55.7642C77.4553 56.0817 77.8325 56.6453 78.3119 57.4391C78.6185 57.9391 78.8621 58.3201 79.0429 58.5662L79.5065 59.2012H78.0212L77.6361 58.6218C77.6203 58.598 77.5968 58.5662 77.5575 58.5106L77.3138 58.1614L76.9287 57.5184L76.5122 56.8279C76.2528 56.4627 76.0171 56.177 75.8049 55.9626C75.5927 55.7483 75.3962 55.5975 75.2233 55.5023C75.0504 55.407 74.7596 55.3594 74.3509 55.3594H74.0287V59.1933H72.7869V59.2012ZM74.4059 51.454H74.0287V54.2402H74.5002C75.1368 54.2402 75.5691 54.1846 75.8049 54.0735C76.0406 53.9623 76.2214 53.7957 76.355 53.5813C76.4886 53.3591 76.5515 53.1051 76.5515 52.8273C76.5515 52.5494 76.4808 52.2954 76.3314 52.0732C76.1821 51.8509 75.9778 51.6922 75.7184 51.5969C75.4591 51.5017 75.0189 51.454 74.4059 51.454Z" fill="white" stroke="white" stroke-width="0.5" stroke-miterlimit="10"/>
<path d="M84.5443 50.3268H85.4245L89.3384 59.1932H88.0573L86.8942 56.5817H83.1689L82.0765 59.1932H80.7954L84.5443 50.3268ZM86.3833 55.4625L84.9765 52.2715L83.6719 55.4625H86.3833Z" fill="white" stroke="white" stroke-width="0.5" stroke-miterlimit="10"/>
<path d="M91.5861 50.3824H96.2388V51.5096H92.8357V53.9703H96.2388V55.0974H92.8357V59.2092H91.5861V50.3824Z" fill="white" stroke="white" stroke-width="0.5" stroke-miterlimit="10"/>
<path d="M98.8716 50.3823H100.121V59.2011H98.8716V50.3823ZM101.237 47.8344L99.8226 49.7315H99.1231L99.964 47.8344H101.237Z" fill="white" stroke="white" stroke-width="0.5" stroke-miterlimit="10"/>
<path d="M106.126 50.3268H107.006L110.92 59.1932H109.639L108.476 56.5817H104.75L103.658 59.1932H102.377L106.126 50.3268ZM107.965 55.4625L106.558 52.2715L105.253 55.4625H107.965Z" fill="white" stroke="white" stroke-width="0.5" stroke-miterlimit="10"/>
</g>
<path d="M0.196408 20.7826C0.141393 20.7826 0.0942383 20.735 0.0942383 20.6794V7.21708C0.0942383 7.16152 0.141393 7.11389 0.196408 7.11389H9.87894C9.93396 7.11389 9.98111 7.16152 9.98111 7.21708V7.58222C9.98111 7.63778 9.93396 7.6854 9.87894 7.6854H0.722974V13.5672H8.91226C8.96728 13.5672 9.01443 13.6149 9.01443 13.6704V14.0356C9.01443 14.0911 8.96728 14.1387 8.91226 14.1387H0.722974V20.2269H10.2012C10.2562 20.2269 10.3033 20.2746 10.3033 20.3301V20.6953C10.3033 20.7508 10.2562 20.7985 10.2012 20.7985H0.196408V20.7826Z" fill="white"/>
<path d="M9.87899 7.217V7.58213H0.628706V13.6624H0.518677V14.0275H0.628706V20.3142H10.2012V20.6793H0.19645V7.217H9.87899ZM8.91231 13.6624V14.0275H0.628706V13.6624H8.91231ZM9.87899 7.01855H0.19645C0.0864207 7.01855 -3.05176e-05 7.10587 -3.05176e-05 7.217V20.6793C-3.05176e-05 20.7904 0.0864207 20.8778 0.19645 20.8778H10.2012C10.3112 20.8778 10.3977 20.7904 10.3977 20.6793V20.3142C10.3977 20.2031 10.3112 20.1157 10.2012 20.1157H0.825186V14.226H8.91231C9.02233 14.226 9.10879 14.1387 9.10879 14.0275V13.6624C9.10879 13.5513 9.02233 13.464 8.91231 13.464H0.825186V7.78058H9.87899C9.98902 7.78058 10.0755 7.69326 10.0755 7.58213V7.217C10.0755 7.10587 9.98902 7.01855 9.87899 7.01855Z" fill="white"/>
<path d="M14.5394 20.7826C14.4844 20.7826 14.4373 20.735 14.4373 20.6794V7.21708C14.4373 7.16152 14.4844 7.11389 14.5394 7.11389H20.2295C21.8249 7.11389 23.2396 7.41552 24.4342 8.00291C25.6288 8.5903 26.5797 9.40788 27.2399 10.4318C27.9079 11.4558 28.2459 12.6385 28.2459 13.9482C28.2459 15.258 27.9079 16.4407 27.2399 17.4646C26.5719 18.4886 25.6288 19.3062 24.4342 19.8936C23.2396 20.481 21.8249 20.7747 20.2295 20.7747H14.5394V20.7826ZM20.1823 20.219C21.6913 20.219 23.0195 19.9412 24.1355 19.4014C25.2437 18.8617 26.116 18.1155 26.7133 17.1789C27.3185 16.2422 27.6171 15.1627 27.6171 13.9562C27.6171 12.7496 27.3106 11.6622 26.7133 10.7335C26.1082 9.79683 25.2437 9.05069 24.1355 8.51092C23.0195 7.97116 21.6913 7.69334 20.1823 7.69334H15.066V20.2269H20.1823V20.219Z" fill="white"/>
<path d="M20.2295 7.217C21.8171 7.217 23.2082 7.51069 24.3949 8.09014C25.5816 8.67753 26.509 9.4713 27.1613 10.4873C27.8215 11.5034 28.1516 12.6543 28.1516 13.9482C28.1516 15.242 27.8215 16.4009 27.1613 17.409C26.5012 18.425 25.5816 19.2188 24.3949 19.8062C23.2082 20.3936 21.8171 20.6793 20.2295 20.6793H14.5395V7.217H20.2295ZM14.9639 20.3142H20.1824C21.7149 20.3142 23.0431 20.0364 24.1748 19.4887C25.3066 18.941 26.1789 18.1869 26.792 17.2264C27.405 16.2739 27.7115 15.1785 27.7115 13.9482C27.7115 12.7178 27.405 11.6224 26.792 10.6699C26.1789 9.71737 25.3066 8.96329 24.1748 8.40765C23.0431 7.85995 21.7149 7.58213 20.1824 7.58213H14.9639V20.3142ZM20.2295 7.01855H14.5395C14.4294 7.01855 14.343 7.10587 14.343 7.217V20.6793C14.343 20.7904 14.4294 20.8778 14.5395 20.8778H20.2295C21.8407 20.8778 23.271 20.5761 24.4814 19.9808C25.6995 19.3855 26.6584 18.552 27.3264 17.5201C28.0023 16.4803 28.3481 15.2738 28.3481 13.9482C28.3481 12.6226 28.0023 11.416 27.3264 10.3762C26.6505 9.33636 25.6917 8.51084 24.4814 7.91551C23.271 7.32019 21.8407 7.01855 20.2295 7.01855ZM15.1603 7.78058H20.1824C21.6756 7.78058 22.9881 8.05046 24.0884 8.59022C25.1808 9.12204 26.0375 9.86025 26.6269 10.781C27.2164 11.7018 27.515 12.7654 27.515 13.9482C27.515 15.1309 27.2164 16.2025 26.6269 17.1232C26.0375 18.044 25.1808 18.7822 24.0884 19.314C22.9881 19.8459 21.6756 20.1237 20.1824 20.1237H15.1603V7.78058V7.78058Z" fill="white"/>
<path d="M37.9442 20.8382C36.1366 20.8382 34.6905 20.354 33.6374 19.3935C32.5843 18.433 32.0498 16.9646 32.0498 15.0516V7.22502C32.0498 7.16945 32.097 7.12183 32.152 7.12183H32.5843C32.6393 7.12183 32.6864 7.16945 32.6864 7.22502V15.0357C32.6864 16.7899 33.1501 18.1235 34.0618 18.9807C34.9735 19.8459 36.2859 20.2825 37.96 20.2825C39.634 20.2825 40.9386 19.8459 41.8503 18.9807C42.7619 18.1155 43.2256 16.7899 43.2256 15.0357V7.22502C43.2256 7.16945 43.2728 7.12183 43.3278 7.12183H43.76C43.8151 7.12183 43.8622 7.16945 43.8622 7.22502V15.0516C43.8622 16.9725 43.3278 18.433 42.2747 19.3935C41.1979 20.354 39.744 20.8382 37.9442 20.8382Z" fill="white"/>
<path d="M43.7365 7.217V15.0436C43.7365 16.9407 43.2178 18.3615 42.1803 19.314C41.1429 20.2666 39.7283 20.7349 37.9364 20.7349C36.1445 20.7349 34.7298 20.2586 33.6924 19.314C32.655 18.3615 32.1363 16.9407 32.1363 15.0436V7.217H32.5685V15.0277C32.5685 16.8216 33.0401 18.1631 33.9753 19.0442C34.9106 19.9252 36.2309 20.3697 37.9364 20.3697C39.6418 20.3697 40.9622 19.9252 41.8974 19.0442C42.8327 18.1631 43.3042 16.8216 43.3042 15.0277V7.217H43.7365M43.7365 7.01855H43.3042C43.1942 7.01855 43.1077 7.10587 43.1077 7.217V15.0277C43.1077 16.7581 42.6519 18.0599 41.7638 18.9013C40.8679 19.7427 39.5789 20.1713 37.9364 20.1713C36.2938 20.1713 35.0049 19.7427 34.1089 18.9013C33.2209 18.0599 32.765 16.7581 32.765 15.0277V7.217C32.765 7.10587 32.6786 7.01855 32.5685 7.01855H32.1441C32.0341 7.01855 31.9477 7.10587 31.9477 7.217V15.0436C31.9477 16.9883 32.4899 18.4806 33.5667 19.4569C34.6355 20.4332 36.1052 20.9333 37.9364 20.9333C39.7676 20.9333 41.2372 20.4412 42.3061 19.4569C43.3828 18.4726 43.9251 16.9883 43.9251 15.0436V7.217C43.9329 7.10587 43.8465 7.01855 43.7365 7.01855Z" fill="white"/>
<path d="M60.225 20.7826C60.1857 20.7826 60.1543 20.7588 60.1386 20.727L58.0637 16.7264H48.9864L46.9115 20.727C46.8958 20.7588 46.8644 20.7826 46.8251 20.7826H46.33C46.2985 20.7826 46.2671 20.7667 46.2435 20.735C46.2278 20.7032 46.2278 20.6715 46.2435 20.6397L53.2225 7.17739C53.2382 7.14564 53.2696 7.12183 53.3089 7.12183H53.7412C53.7805 7.12183 53.8119 7.14564 53.8276 7.17739L60.8066 20.6397C60.8223 20.6715 60.8223 20.7111 60.8066 20.735C60.7909 20.7667 60.7595 20.7826 60.7202 20.7826H60.225ZM57.773 16.1549L53.529 7.94735L49.2772 16.1549H57.773Z" fill="white"/>
<path d="M53.7412 7.217L60.7202 20.6793H60.225L58.1266 16.6232H58.4017L58.1895 16.258H57.938L53.529 7.73295L53.639 7.52657H53.4268L53.529 7.73295L49.12 16.258H48.8528L48.6406 16.6232H48.9392L46.8408 20.6793H46.3457L53.3247 7.217H53.7412M57.938 16.258L58.1266 16.6232H48.9314L49.12 16.258H57.938ZM53.7412 7.01855H53.309C53.2382 7.01855 53.1675 7.05824 53.136 7.12175L46.1571 20.592C46.1256 20.6555 46.1256 20.7269 46.1649 20.7904C46.2042 20.846 46.2671 20.8857 46.33 20.8857H46.8251C46.8958 20.8857 46.9666 20.846 46.998 20.7825L49.0414 16.8295H58.0009L60.0443 20.7825C60.0757 20.846 60.1465 20.8857 60.2172 20.8857H60.7123C60.7831 20.8857 60.8459 20.846 60.8774 20.7904C60.9167 20.7349 60.9167 20.6555 60.8852 20.592L53.9141 7.12968C53.8827 7.05825 53.8119 7.01855 53.7412 7.01855ZM49.4422 16.0596L53.529 8.16158L57.6158 16.0596H49.4422Z" fill="white"/>
<path d="M74.4424 20.7826C74.4109 20.7826 74.3874 20.7667 74.3638 20.7429L70.5756 16.0359C70.0491 16.1232 69.4675 16.1708 68.8545 16.1708H64.2961V20.6873C64.2961 20.7429 64.249 20.7905 64.194 20.7905H63.7617C63.7067 20.7905 63.6595 20.7429 63.6595 20.6873V7.21708C63.6595 7.16152 63.7067 7.11389 63.7617 7.11389H68.8466C70.0805 7.11389 71.1651 7.29646 72.0532 7.64572C72.9491 8.00291 73.6407 8.5268 74.128 9.18563C74.6074 9.85239 74.8589 10.6779 74.8589 11.6304C74.8589 12.5671 74.6153 13.3926 74.128 14.0594C73.6486 14.7341 72.9491 15.258 72.0532 15.6152C71.8017 15.7183 71.5266 15.8057 71.2437 15.8771L75.0475 20.6C75.0711 20.6318 75.079 20.6715 75.0633 20.7032C75.0475 20.735 75.0161 20.7588 74.9768 20.7588H74.4424V20.7826ZM68.9016 15.5993C70.6307 15.5993 71.9667 15.25 72.8784 14.5515C73.7822 13.8609 74.238 12.8846 74.238 11.6384C74.238 10.3842 73.7822 9.39995 72.8784 8.7173C71.9667 8.02673 70.6307 7.67747 68.9016 7.67747H64.2961V15.5913H68.9016V15.5993Z" fill="white"/>
<path d="M68.8544 7.217C70.0883 7.217 71.1414 7.39163 72.0217 7.74882C72.9019 8.09808 73.5778 8.60609 74.0493 9.25698C74.5209 9.90787 74.7567 10.7096 74.7567 11.6383C74.7567 12.5591 74.5209 13.3528 74.0493 14.0117C73.5778 14.6705 72.9019 15.1785 72.0217 15.5278C71.723 15.6468 71.4087 15.7421 71.0707 15.8215L71.0393 15.7818H70.5048L70.607 15.9088C70.0647 16.004 69.4831 16.0516 68.8466 16.0516H64.186V15.877L63.9896 16.0516H64.186V20.6634H63.7538V7.217H68.8544ZM64.0053 7.58213H64.2018V15.6944H64.0053L64.2018 15.8453V15.6944H68.9016C70.662 15.6944 72.006 15.3373 72.9412 14.6308C73.8686 13.9164 74.3401 12.9242 74.3401 11.6383C74.3401 10.3444 73.8764 9.3443 72.9412 8.63784C72.0138 7.93139 70.662 7.58213 68.9016 7.58213H64.2018V7.43131L64.0053 7.58213ZM71.0786 15.8294L74.9767 20.6793H74.4423L70.6149 15.9246C70.7721 15.9008 70.9292 15.8691 71.0786 15.8294ZM68.8544 7.01855H63.7695C63.6595 7.01855 63.573 7.10587 63.573 7.217V20.6793C63.573 20.7904 63.6595 20.8778 63.7695 20.8778H64.2018C64.3118 20.8778 64.3982 20.7904 64.3982 20.6793V16.266H68.8623C69.4596 16.266 70.0254 16.2263 70.5363 16.139L74.2851 20.8063C74.3244 20.8539 74.3794 20.8778 74.4344 20.8778H74.9689C75.0475 20.8778 75.1103 20.8301 75.1496 20.7666C75.1811 20.6952 75.1732 20.6158 75.1261 20.5523L71.4165 15.9485C71.6523 15.885 71.8802 15.8056 72.0924 15.7183C73.0041 15.3531 73.7193 14.8213 74.2065 14.1307C74.7017 13.4401 74.9532 12.5987 74.9532 11.6383C74.9532 10.662 74.7017 9.82056 74.2065 9.13792C73.7114 8.45528 73.0041 7.92345 72.0924 7.55832C71.1965 7.20112 70.104 7.01855 68.8544 7.01855ZM64.3904 7.78058H68.8937C70.5992 7.78058 71.9195 8.12189 72.8155 8.7966C73.7035 9.4713 74.1358 10.4 74.1358 11.6383C74.1358 12.8686 73.7035 13.7894 72.8155 14.472C71.9274 15.1547 70.607 15.496 68.9016 15.496H64.3982V7.78058H64.3904Z" fill="white"/>
<path d="M79.1421 20.7826C79.0871 20.7826 79.0399 20.735 79.0399 20.6794V7.21708C79.0399 7.16152 79.0871 7.11389 79.1421 7.11389H84.8322C86.4276 7.11389 87.8422 7.41552 89.0368 8.00291C90.2393 8.5903 91.1824 9.40788 91.8426 10.4318C92.5106 11.4558 92.8485 12.6385 92.8485 13.9482C92.8485 15.258 92.5106 16.4407 91.8426 17.4646C91.1745 18.4886 90.2314 19.3062 89.0368 19.8936C87.8422 20.481 86.4276 20.7747 84.8322 20.7747H79.1421V20.7826ZM84.785 20.219C86.294 20.219 87.6222 19.9412 88.7382 19.4014C89.8463 18.8617 90.7187 18.1155 91.316 17.1789C91.9212 16.2422 92.2198 15.1627 92.2198 13.9562C92.2198 12.7496 91.9133 11.6622 91.316 10.7335C90.7108 9.79683 89.8463 9.05069 88.7382 8.51092C87.6222 7.97116 86.294 7.69334 84.785 7.69334H79.6687V20.2269H84.785V20.219Z" fill="white"/>
<path d="M84.8322 7.217C86.4198 7.217 87.8108 7.51069 88.9976 8.09014C90.1843 8.67753 91.1117 9.4713 91.764 10.4873C92.4242 11.5034 92.7543 12.6543 92.7543 13.9482C92.7543 15.242 92.4242 16.4009 91.764 17.409C91.1038 18.425 90.1843 19.2188 88.9976 19.8062C87.8108 20.3936 86.4198 20.6793 84.8322 20.6793H79.1421V7.217H84.8322ZM79.5665 20.3142H84.785C86.3176 20.3142 87.6458 20.0364 88.7775 19.4887C89.9092 18.941 90.7816 18.1869 91.3946 17.2264C92.0076 16.2739 92.3142 15.1785 92.3142 13.9482C92.3142 12.7178 92.0076 11.6224 91.3946 10.6699C90.7816 9.71737 89.9092 8.96329 88.7775 8.40765C87.6458 7.85995 86.3176 7.58213 84.785 7.58213H79.5665V20.3142ZM84.8322 7.01855H79.1421C79.0321 7.01855 78.9456 7.10587 78.9456 7.217V20.6793C78.9456 20.7904 79.0321 20.8778 79.1421 20.8778H84.8322C86.4433 20.8778 87.8737 20.5761 89.084 19.9808C90.3022 19.3855 91.261 18.552 91.9291 17.5201C92.6049 16.4803 92.9507 15.2738 92.9507 13.9482C92.9507 12.6226 92.6049 11.416 91.9291 10.3762C91.2532 9.33636 90.2943 8.51084 89.084 7.91551C87.8737 7.32019 86.4433 7.01855 84.8322 7.01855ZM79.763 7.78058H84.785C86.2783 7.78058 87.5908 8.05046 88.6911 8.59022C89.7835 9.12204 90.6401 9.86025 91.2296 10.781C91.819 11.7018 92.1177 12.7654 92.1177 13.9482C92.1177 15.1309 91.819 16.2025 91.2296 17.1232C90.6401 18.044 89.7835 18.7822 88.6911 19.314C87.5908 19.8459 86.2783 20.1237 84.785 20.1237H79.763V7.78058Z" fill="white"/>
<path d="M102.995 20.8382C101.887 20.8382 100.849 20.6635 99.8982 20.3222C98.9551 19.9809 98.122 19.4888 97.4226 18.8696C96.7231 18.2505 96.1651 17.5123 95.78 16.6868C95.387 15.8533 95.1906 14.9325 95.1906 13.9483C95.1906 12.964 95.387 12.0432 95.78 11.2177C96.173 10.3922 96.7231 9.65397 97.4226 9.03483C98.122 8.41569 98.9551 7.92356 99.8982 7.58224C100.841 7.24091 101.879 7.06628 102.995 7.06628C104.103 7.06628 105.14 7.24091 106.091 7.58224C107.034 7.92356 107.867 8.41569 108.567 9.03483C109.266 9.65397 109.824 10.3922 110.209 11.2177C110.595 12.0432 110.799 12.964 110.799 13.9483C110.799 14.9325 110.602 15.8533 110.209 16.6868C109.817 17.5202 109.266 18.2505 108.567 18.8696C107.867 19.4888 107.034 19.9809 106.091 20.3222C105.14 20.6635 104.103 20.8382 102.995 20.8382ZM102.995 7.62986C101.981 7.62986 101.022 7.78861 100.15 8.10612C99.2773 8.42363 98.5071 8.86814 97.8627 9.43965C97.2182 10.0112 96.7074 10.6859 96.3537 11.4479C96 12.2099 95.8193 13.0513 95.8193 13.9562C95.8193 14.8611 96 15.7025 96.3537 16.4645C96.7152 17.2265 97.2182 17.9012 97.8627 18.4727C98.5071 19.0443 99.2773 19.4967 100.15 19.8063C101.022 20.1238 101.981 20.2825 102.995 20.2825C104.009 20.2825 104.967 20.1238 105.84 19.8063C106.712 19.4888 107.482 19.0443 108.127 18.4727C108.771 17.9012 109.282 17.2265 109.636 16.4645C109.989 15.7025 110.17 14.8611 110.17 13.9562C110.17 13.0513 109.989 12.2099 109.636 11.4479C109.274 10.6859 108.771 10.0112 108.127 9.43965C107.482 8.86814 106.712 8.41569 105.84 8.10612C104.96 7.78861 104.009 7.62986 102.995 7.62986Z" fill="white"/>
<path d="M102.995 7.16145C104.095 7.16145 105.117 7.32815 106.052 7.66947C106.987 8.01079 107.805 8.48705 108.496 9.09825C109.188 9.71739 109.73 10.4318 110.115 11.2494C110.5 12.0669 110.697 12.9639 110.697 13.9402C110.697 14.9166 110.5 15.8135 110.115 16.6311C109.73 17.4487 109.188 18.171 108.496 18.7822C107.805 19.4014 106.987 19.8776 106.052 20.211C105.117 20.5523 104.095 20.719 102.995 20.719C101.894 20.719 100.873 20.5523 99.9376 20.211C99.0023 19.8697 98.185 19.3934 97.4933 18.7822C96.8017 18.171 96.2594 17.4487 95.8743 16.6311C95.4892 15.8135 95.2928 14.9166 95.2928 13.9402C95.2928 12.9639 95.4892 12.0669 95.8743 11.2494C96.2594 10.4318 96.8017 9.70945 97.4933 9.09825C98.185 8.48705 99.0023 8.00285 99.9376 7.66947C100.873 7.32815 101.894 7.16145 102.995 7.16145ZM102.995 20.3698C104.024 20.3698 104.983 20.211 105.871 19.8856C106.759 19.5681 107.53 19.1156 108.19 18.5282C108.85 17.9408 109.361 17.2661 109.722 16.4882C110.084 15.7103 110.272 14.861 110.272 13.9402C110.272 13.0195 110.092 12.1701 109.722 11.3922C109.361 10.6144 108.842 9.93965 108.19 9.35226C107.53 8.76487 106.759 8.32036 105.871 7.99491C104.983 7.67741 104.024 7.51072 102.995 7.51072C101.965 7.51072 101.006 7.66947 100.118 7.99491C99.2302 8.31242 98.46 8.76487 97.7999 9.35226C97.1397 9.93965 96.6288 10.6144 96.2673 11.3922C95.9058 12.1701 95.7172 13.0195 95.7172 13.9402C95.7172 14.861 95.8979 15.7103 96.2673 16.4882C96.6288 17.2661 97.1475 17.9408 97.7999 18.5282C98.46 19.1156 99.2302 19.5601 100.118 19.8856C101.006 20.211 101.965 20.3698 102.995 20.3698ZM102.995 6.96301C101.871 6.96301 100.826 7.13764 99.8668 7.4869C98.908 7.83616 98.0671 8.3283 97.3597 8.95537C96.6445 9.58245 96.0865 10.3286 95.6936 11.17C95.2928 12.0114 95.0963 12.948 95.0963 13.9482C95.0963 14.9483 95.3006 15.885 95.6936 16.7264C96.0865 17.5678 96.6524 18.3139 97.3597 18.941C98.0671 19.5681 98.9159 20.0681 99.8668 20.4095C100.818 20.7587 101.871 20.9333 102.995 20.9333C104.119 20.9333 105.164 20.7587 106.123 20.4095C107.082 20.0602 107.923 19.5681 108.63 18.941C109.337 18.3139 109.903 17.5678 110.296 16.7264C110.697 15.885 110.893 14.9483 110.893 13.9482C110.893 12.948 110.689 12.0114 110.296 11.17C109.895 10.3286 109.337 9.58245 108.63 8.95537C107.923 8.3283 107.074 7.82822 106.123 7.4869C105.164 7.13764 104.111 6.96301 102.995 6.96301ZM102.995 20.1713C101.989 20.1713 101.046 20.0126 100.181 19.703C99.3245 19.3934 98.5622 18.9489 97.9256 18.3853C97.289 17.8218 96.7939 17.155 96.4402 16.4089C96.0865 15.6627 95.9136 14.8372 95.9136 13.9482C95.9136 13.0592 96.0944 12.2336 96.4402 11.4875C96.7939 10.7414 97.289 10.0746 97.9256 9.51101C98.5622 8.94744 99.3245 8.50293 100.181 8.19336C101.046 7.88379 101.989 7.72503 102.995 7.72503C103.993 7.72503 104.944 7.88379 105.808 8.19336C106.665 8.50293 107.427 8.94744 108.064 9.51101C108.701 10.0746 109.204 10.7414 109.549 11.4875C109.903 12.2336 110.076 13.0592 110.076 13.9482C110.076 14.8372 109.895 15.6627 109.549 16.4089C109.196 17.155 108.701 17.8218 108.064 18.3853C107.427 18.9489 106.665 19.3934 105.808 19.703C104.944 20.0126 104.001 20.1713 102.995 20.1713Z" fill="white"/>
<path d="M0.829495 43.8574C0.774481 43.8574 0.727325 43.8098 0.727325 43.7542V30.2998C0.727325 30.2443 0.774481 30.1967 0.829495 30.1967H6.04801C7.51768 30.1967 8.81444 30.4983 9.91473 31.0857C11.015 31.6731 11.8874 32.4906 12.4926 33.5146C13.1056 34.5386 13.4121 35.7213 13.4121 37.0231C13.4121 38.3248 13.1056 39.5155 12.4926 40.5395C11.8795 41.5634 11.015 42.381 9.91473 42.9684C8.81444 43.5558 7.51768 43.8574 6.04801 43.8574H0.829495V43.8574ZM6.00871 43.2938C7.39193 43.2938 8.6101 43.016 9.62394 42.4763C10.6378 41.9365 11.4394 41.1904 11.9896 40.2537C12.5397 39.3171 12.8226 38.2296 12.8226 37.0231C12.8226 35.8165 12.5397 34.7291 11.9896 33.7924C11.4394 32.8558 10.6378 32.1096 9.62394 31.5699C8.60225 31.0301 7.39193 30.7523 6.00871 30.7523H1.32462V43.2938H6.00871Z" fill="white"/>
<path d="M6.04796 30.2919C7.50191 30.2919 8.78296 30.5856 9.86753 31.1651C10.96 31.7525 11.8009 32.5463 12.406 33.5623C13.0112 34.5783 13.3099 35.7293 13.3099 37.0231C13.3099 38.317 13.0112 39.4759 12.406 40.4839C11.8009 41.5 10.9521 42.2937 9.86753 42.8811C8.7751 43.4685 7.50191 43.7543 6.04796 43.7543H0.829445V30.2919H6.04796ZM1.22241 43.3891H6.00866C7.41546 43.3891 8.63363 43.1113 9.67105 42.5636C10.7085 42.0159 11.5101 41.2618 12.076 40.3014C12.6418 39.3489 12.9248 38.2535 12.9248 37.0231C12.9248 35.7928 12.6418 34.6974 12.076 33.7448C11.5101 32.7923 10.7085 32.0382 9.67105 31.4826C8.63363 30.9349 7.41546 30.6571 6.00866 30.6571H1.22241V43.3891ZM6.04796 30.0935H0.829445C0.719416 30.0935 0.632965 30.1888 0.632965 30.2919V43.7543C0.632965 43.8654 0.719416 43.9527 0.829445 43.9527H6.04796C7.53334 43.9527 8.84583 43.6511 9.96184 43.0558C11.0778 42.4604 11.9581 41.627 12.579 40.5871C13.1998 39.5473 13.5142 38.3487 13.5142 37.0231C13.5142 35.6975 13.1998 34.4989 12.579 33.4591C11.9581 32.4193 11.0778 31.5937 9.96184 30.9905C8.84583 30.4031 7.53334 30.0935 6.04796 30.0935ZM1.41889 30.8555H6.00866C7.37616 30.8555 8.57862 31.1254 9.5846 31.6572C10.5827 32.1891 11.3686 32.9273 11.9109 33.8401C12.4532 34.7609 12.7283 35.8325 12.7283 37.0152C12.7283 38.2058 12.4532 39.2695 11.9109 40.1902C11.3686 41.111 10.5827 41.8413 9.5846 42.3731C8.57862 42.9049 7.37616 43.1748 6.00866 43.1748H1.41889V30.8555Z" fill="white"/>
<path d="M17.0981 43.8574C17.0431 43.8574 16.9959 43.8098 16.9959 43.7542V30.2998C16.9959 30.2443 17.0431 30.1967 17.0981 30.1967H25.979C26.034 30.1967 26.0811 30.2443 26.0811 30.2998V30.665C26.0811 30.7205 26.034 30.7682 25.979 30.7682H17.5932V36.65H25.0987C25.1538 36.65 25.2009 36.6976 25.2009 36.7532V37.1024C25.2009 37.158 25.1538 37.2056 25.0987 37.2056H17.5932V43.2938H26.2776C26.3326 43.2938 26.3798 43.3415 26.3798 43.397V43.7622C26.3798 43.8177 26.3326 43.8653 26.2776 43.8653H17.0981V43.8574Z" fill="white"/>
<path d="M25.979 30.2919V30.6571H17.491V36.7374H17.3889V37.1025H17.491V43.3891H26.2776V43.7543H17.0981V30.2919H25.979ZM25.0987 36.7374V37.1025H17.4989V36.7374H25.0987ZM25.979 30.0935H17.0981C16.988 30.0935 16.9016 30.1808 16.9016 30.2919V43.7543C16.9016 43.8654 16.988 43.9527 17.0981 43.9527H26.2776C26.3876 43.9527 26.4741 43.8654 26.4741 43.7543V43.3891C26.4741 43.278 26.3876 43.1907 26.2776 43.1907H17.6875V37.3009H25.0909C25.2009 37.3009 25.2873 37.2136 25.2873 37.1025V36.7374C25.2873 36.6262 25.2009 36.5389 25.0909 36.5389H17.6875V30.8555H25.979C26.089 30.8555 26.1754 30.7682 26.1754 30.6571V30.2919C26.1754 30.1888 26.089 30.0935 25.979 30.0935Z" fill="white"/>
<path d="M43.4499 43.8574C43.3949 43.8574 43.3477 43.8098 43.3477 43.7542V31.4826L37.2568 41.9047C37.2411 41.9365 37.2097 41.9524 37.1704 41.9524H36.9346C36.9032 41.9524 36.8717 41.9365 36.8482 41.9047L30.7494 31.5143V43.7542C30.7494 43.8098 30.7023 43.8574 30.6473 43.8574H30.2543C30.1993 43.8574 30.1521 43.8098 30.1521 43.7542V30.2998C30.1521 30.2443 30.1993 30.1967 30.2543 30.1967H30.5922C30.6237 30.1967 30.6551 30.2125 30.6787 30.2443L37.0682 41.1427L43.4342 30.2443C43.4499 30.2125 43.4813 30.1967 43.5206 30.1967H43.8586C43.9136 30.1967 43.9607 30.2443 43.9607 30.2998V43.7622C43.9607 43.8177 43.9136 43.8653 43.8586 43.8653H43.4499V43.8574Z" fill="white"/>
<path d="M43.8508 30.2919V43.7543H43.4578V31.1254L43.615 30.8555H43.4578V31.1254L37.1783 41.8572H36.9425L30.663 31.1572V30.8555H30.4823L30.663 31.1572V43.7622H30.2701V30.2919H30.608L37.0761 41.3333L36.9897 41.4841H37.1705L37.084 41.3333L43.5364 30.2919H43.8508ZM43.8508 30.0935H43.5128C43.4421 30.0935 43.3792 30.1332 43.3399 30.1888L37.0604 40.9364L30.7573 30.1967C30.7181 30.1332 30.6552 30.1014 30.5844 30.1014H30.2465C30.1365 30.1014 30.05 30.1888 30.05 30.2999V43.7622C30.05 43.8733 30.1365 43.9606 30.2465 43.9606H30.6395C30.7495 43.9606 30.8359 43.8733 30.8359 43.7622V31.8795L36.7539 41.9524C36.7932 42.0159 36.8561 42.0477 36.9268 42.0477H37.1626C37.2333 42.0477 37.2962 42.008 37.3355 41.9524L43.2535 31.8477V43.7543C43.2535 43.8654 43.3399 43.9527 43.45 43.9527H43.8429C43.9529 43.9527 44.0394 43.8654 44.0394 43.7543V30.2919C44.0473 30.1888 43.9529 30.0935 43.8508 30.0935Z" fill="white"/>
<path d="M59.3884 43.8574C59.3491 43.8574 59.3177 43.8336 59.3019 43.8019L57.4 39.8013H49.085L47.183 43.8019C47.1673 43.8336 47.1359 43.8574 47.0966 43.8574H46.6408C46.6093 43.8574 46.5779 43.8415 46.5543 43.8098C46.5307 43.778 46.5307 43.7463 46.5464 43.7145L52.9517 30.2522C52.9674 30.2205 52.9989 30.1967 53.0381 30.1967H53.4311C53.4704 30.1967 53.5018 30.2205 53.5176 30.2522L59.9228 43.7145C59.9385 43.7463 59.9385 43.778 59.9149 43.8098C59.8914 43.8415 59.8678 43.8574 59.8285 43.8574H59.3884V43.8574ZM57.1328 39.2377L53.2425 31.046L49.3522 39.2377H57.1328Z" fill="white"/>
<path d="M53.439 30.2919L59.8442 43.7543H59.3884L57.4629 39.6981H57.7144L57.5179 39.333H57.29L53.2425 30.8079L53.3447 30.6015H53.1482L53.2504 30.8079L49.2029 39.333H48.9514L48.7549 39.6981H49.03L47.1045 43.7543H46.6486L53.0539 30.2919H53.439M57.29 39.333L57.4629 39.6981H49.0221L49.195 39.333H57.29ZM53.439 30.0935H53.046C52.9674 30.0935 52.9046 30.1411 52.8653 30.2046L46.46 43.667C46.4286 43.7305 46.4364 43.8019 46.4679 43.8575C46.5072 43.913 46.57 43.9527 46.6329 43.9527H47.0888C47.1673 43.9527 47.2302 43.9051 47.2695 43.8416L49.14 39.8965H57.3293L59.1998 43.8416C59.2312 43.913 59.3019 43.9527 59.3805 43.9527H59.8364C59.9071 43.9527 59.97 43.921 60.0014 43.8575C60.0407 43.8019 60.0407 43.7305 60.0093 43.667L53.604 30.2046C53.5883 30.1411 53.5176 30.0935 53.439 30.0935ZM49.5094 39.1345L53.2425 31.2683L56.9756 39.1345H49.5094Z" fill="white"/>
<path d="M72.4267 43.8574C72.3953 43.8574 72.3639 43.8415 72.3482 43.8177L68.8744 39.1107C68.395 39.198 67.8606 39.2377 67.3025 39.2377H63.1293V43.7542C63.1293 43.8098 63.0822 43.8574 63.0271 43.8574H62.6342C62.5792 43.8574 62.532 43.8098 62.532 43.7542V30.2998C62.532 30.2443 62.5792 30.1967 62.6342 30.1967H67.3025C68.4421 30.1967 69.4324 30.3792 70.2497 30.7285C71.075 31.0857 71.7116 31.6096 72.1517 32.2763C72.5918 32.9431 72.8197 33.7607 72.8197 34.7132C72.8197 35.6498 72.5918 36.4674 72.1517 37.1421C71.7116 37.8168 71.0671 38.3407 70.2497 38.6979C70.014 38.8011 69.7703 38.8884 69.5031 38.9599L72.9926 43.6907C73.0162 43.7225 73.0162 43.7622 73.0005 43.7939C72.9848 43.8257 72.9533 43.8495 72.914 43.8495H72.4267V43.8574ZM67.3497 38.6741C68.9373 38.6741 70.1554 38.3248 70.9885 37.6263C71.8137 36.9358 72.2303 35.9594 72.2303 34.7132C72.2303 33.459 71.8137 32.4748 70.9885 31.7921C70.1554 31.1015 68.9294 30.7602 67.3497 30.7602H63.1372V38.6741H67.3497Z" fill="white"/>
<path d="M67.3105 30.2919C68.4422 30.2919 69.4089 30.4666 70.2184 30.8238C71.0279 31.173 71.6488 31.681 72.081 32.3319C72.5133 32.9828 72.7333 33.7845 72.7333 34.7132C72.7333 35.634 72.5133 36.4278 72.081 37.0866C71.6488 37.7454 71.0279 38.2535 70.2184 38.6027C69.9433 38.7218 69.6604 38.817 69.346 38.8964L69.3224 38.8567H68.8273L68.9216 38.9837C68.4265 39.079 67.8921 39.1266 67.3105 39.1266H63.0351V38.952L62.8543 39.1266H63.0351V43.7384H62.6421V30.2919H67.3105ZM62.8543 30.6571H63.0351V38.7694H62.8543L63.0351 38.9202V38.7694H67.3498C68.9688 38.7694 70.2027 38.4122 71.0515 37.7058C71.9081 36.9914 72.3325 35.9991 72.3325 34.7132C72.3325 33.4194 71.9081 32.4192 71.0515 31.7128C70.1948 31.0063 68.9609 30.6571 67.3498 30.6571H63.0351V30.5063L62.8543 30.6571ZM69.346 38.9123L72.922 43.7622H72.4268L68.9216 39.0075C69.0631 38.9758 69.2046 38.944 69.346 38.9123ZM67.3105 30.0935H62.6421C62.5321 30.0935 62.4456 30.1808 62.4456 30.2919V43.7543C62.4456 43.8654 62.5321 43.9527 62.6421 43.9527H63.0351C63.1451 43.9527 63.2316 43.8654 63.2316 43.7543V39.3409H67.3105C67.8528 39.3409 68.3636 39.3012 68.8352 39.2218L72.2696 43.8813C72.3089 43.9289 72.364 43.9606 72.4268 43.9606H72.922C72.9927 43.9606 73.0634 43.921 73.0949 43.8495C73.1263 43.786 73.1184 43.6987 73.0791 43.6431L69.6761 39.0234C69.8883 38.9599 70.1005 38.8805 70.297 38.7932C71.1379 38.4281 71.7902 37.8883 72.2461 37.1977C72.7019 36.5072 72.9298 35.6737 72.9298 34.7132C72.9298 33.7448 72.7019 32.9034 72.2461 32.2208C71.7902 31.5382 71.1379 31.0063 70.297 30.6412C69.4639 30.284 68.4579 30.0935 67.3105 30.0935ZM63.2316 30.8555H67.3498C68.9138 30.8555 70.1162 31.1968 70.9257 31.8716C71.7274 32.5304 72.136 33.4908 72.136 34.7212C72.136 35.9515 71.7431 36.8802 70.9257 37.5549C70.1084 38.2296 68.9059 38.5789 67.3498 38.5789H63.2316V30.8555Z" fill="white"/>
<path d="M79.1228 43.8574C79.0678 43.8574 79.0207 43.8098 79.0207 43.7542V30.7602H73.9986C73.9436 30.7602 73.8965 30.7126 73.8965 30.657V30.2919C73.8965 30.2363 73.9436 30.1887 73.9986 30.1887H84.6321C84.6871 30.1887 84.7343 30.2363 84.7343 30.2919V30.657C84.7343 30.7126 84.6871 30.7602 84.6321 30.7602H79.6101V43.7542C79.6101 43.8098 79.5629 43.8574 79.5079 43.8574H79.1228Z" fill="white"/>
<path d="M84.64 30.2919V30.6571H79.5158V43.7543H79.1229V30.6571H73.9987V30.2919H84.64ZM84.64 30.0935H74.0065C73.8965 30.0935 73.8101 30.1808 73.8101 30.2919V30.6571C73.8101 30.7682 73.8965 30.8555 74.0065 30.8555H78.9343V43.7543C78.9343 43.8654 79.0207 43.9527 79.1307 43.9527H79.5237C79.6337 43.9527 79.7202 43.8654 79.7202 43.7543V30.8555H84.6479C84.7579 30.8555 84.8444 30.7682 84.8444 30.6571V30.2919C84.8365 30.1888 84.7501 30.0935 84.64 30.0935Z" fill="white"/>
<path d="M87.3356 43.8574C87.2806 43.8574 87.2335 43.8098 87.2335 43.7542V30.2998C87.2335 30.2443 87.2806 30.1967 87.3356 30.1967H87.7286C87.7836 30.1967 87.8308 30.2443 87.8308 30.2998V43.7622C87.8308 43.8177 87.7836 43.8653 87.7286 43.8653H87.3356V43.8574Z" fill="white"/>
<path d="M87.7365 30.2919V43.7543H87.3435V30.2919H87.7365ZM87.7365 30.0935H87.3435C87.2335 30.0935 87.1471 30.1808 87.1471 30.2919V43.7543C87.1471 43.8654 87.2335 43.9527 87.3435 43.9527H87.7365C87.8465 43.9527 87.933 43.8654 87.933 43.7543V30.2919C87.933 30.1888 87.8387 30.0935 87.7365 30.0935Z" fill="white"/>
<path d="M103.471 43.8574C103.439 43.8574 103.416 43.8415 103.392 43.8177L93.4659 31.2921V43.7542C93.4659 43.8098 93.4188 43.8574 93.3637 43.8574H92.9708C92.9158 43.8574 92.8686 43.8098 92.8686 43.7542V30.2998C92.8686 30.2443 92.9158 30.1967 92.9708 30.1967H93.3087C93.3402 30.1967 93.3637 30.2125 93.3873 30.2363L103.313 42.762V30.2998C103.313 30.2443 103.361 30.1967 103.416 30.1967H103.809C103.864 30.1967 103.911 30.2443 103.911 30.2998V43.7622C103.911 43.8177 103.864 43.8653 103.809 43.8653H103.471V43.8574Z" fill="white"/>
<path d="M103.809 30.2919V43.7543H103.471L93.3638 31.0063V30.7365H93.1437L93.3638 31.0063V43.7543H92.9708V30.2919H93.3087L103.416 43.0399V43.3098H103.636L103.416 43.0399V30.2919H103.809ZM103.809 30.0935H103.416C103.306 30.0935 103.219 30.1808 103.219 30.2919V42.4684L93.4659 30.1649C93.4266 30.1173 93.3716 30.0935 93.3087 30.0935H92.9708C92.8608 30.0935 92.7743 30.1808 92.7743 30.2919V43.7543C92.7743 43.8654 92.8608 43.9527 92.9708 43.9527H93.3638C93.4738 43.9527 93.5602 43.8654 93.5602 43.7543V31.5779L103.314 43.8813C103.353 43.9289 103.408 43.9527 103.471 43.9527H103.809C103.919 43.9527 104.005 43.8654 104.005 43.7543V30.2919C104.005 30.1888 103.911 30.0935 103.809 30.0935Z" fill="white"/>
<path d="M110.316 43.8574C110.261 43.8574 110.214 43.8098 110.214 43.7542V30.2998C110.214 30.2443 110.261 30.1967 110.316 30.1967H110.709C110.764 30.1967 110.811 30.2443 110.811 30.2998V43.7622C110.811 43.8177 110.764 43.8653 110.709 43.8653H110.316V43.8574Z" fill="white"/>
<path d="M110.709 30.2919V43.7543H110.316V30.2919H110.709ZM110.709 30.0935H110.316C110.206 30.0935 110.12 30.1808 110.12 30.2919V43.7543C110.12 43.8654 110.206 43.9527 110.316 43.9527H110.709C110.819 43.9527 110.905 43.8654 110.905 43.7543V30.2919C110.905 30.1888 110.819 30.0935 110.709 30.0935Z" fill="white"/>
<defs>
<filter id="filter0_d_10_73" x="112.654" y="0" width="50.0177" height="74.4653" filterUnits="userSpaceOnUse" color-interpolation-filters="sRGB">
<feFlood flood-opacity="0" result="BackgroundImageFix"/>
<feColorMatrix in="SourceAlpha" type="matrix" values="0 0 0 0 0 0 0 0 0 0 0 0 0 0 0 0 0 0 127 0" result="hardAlpha"/>
<feOffset dy="4"/>
<feGaussianBlur stdDeviation="2"/>
<feComposite in2="hardAlpha" operator="out"/>
<feColorMatrix type="matrix" values="0 0 0 0 0 0 0 0 0 0 0 0 0 0 0 0 0 0 0.25 0"/>
<feBlend mode="normal" in2="BackgroundImageFix" result="effect1_dropShadow_10_73"/>
<feBlend mode="normal" in="SourceGraphic" in2="effect1_dropShadow_10_73" result="shape"/>
</filter>
<filter id="filter1_d_10_73" x="19.4876" y="47.5844" width="95.8158" height="19.9701" filterUnits="userSpaceOnUse" color-interpolation-filters="sRGB">
<feFlood flood-opacity="0" result="BackgroundImageFix"/>
<feColorMatrix in="SourceAlpha" type="matrix" values="0 0 0 0 0 0 0 0 0 0 0 0 0 0 0 0 0 0 127 0" result="hardAlpha"/>
<feOffset dy="4"/>
<feGaussianBlur stdDeviation="2"/>
<feComposite in2="hardAlpha" operator="out"/>
<feColorMatrix type="matrix" values="0 0 0 0 0 0 0 0 0 0 0 0 0 0 0 0 0 0 0.25 0"/>
<feBlend mode="normal" in2="BackgroundImageFix" result="effect1_dropShadow_10_73"/>
<feBlend mode="normal" in="SourceGraphic" in2="effect1_dropShadow_10_73" result="shape"/>
</filter>
</defs>
</svg>
